<svg id="Layer_1" data-name="Layer 1" xmlns="http://www.w3.org/2000/svg" xmlns:xlink="http://www.w3.org/1999/xlink" viewBox="0 0 292.98 79"><defs><style>.cls-1{fill:url(#linear-gradient);}.cls-2{fill:url(#linear-gradient-9);}.cls-3{fill:url(#linear-gradient-10);}.cls-4{fill:url(#linear-gradient-16);}.cls-5{fill:url(#linear-gradient-20);}.cls-6{fill:url(#linear-gradient-21);}</style><linearGradient id="linear-gradient" x1="399.02" y1="1775.24" x2="536.98" y2="1637.28" gradientUnits="userSpaceOnUse"><stop offset="0" stop-color="#fff"/><stop offset="0.42" stop-color="#fdfdfd"/><stop offset="0.61" stop-color="#f7f7f6"/><stop offset="0.75" stop-color="#edece9"/><stop offset="0.87" stop-color="#deddd7"/><stop offset="0.97" stop-color="#cbcac0"/><stop offset="1" stop-color="#c3c2b7"/></linearGradient><linearGradient id="linear-gradient-9" x1="258.63" y1="24.83" x2="270.35" y2="13.11" gradientUnits="userSpaceOnUse"><stop offset="0" stop-color="#fff"/><stop offset="0.32" stop-color="#fcfcfc"/><stop offset="0.55" stop-color="#f3f3f3"/><stop offset="0.74" stop-color="#e4e4e4"/><stop offset="0.92" stop-color="#cfcfce"/><stop offset="1" stop-color="#c3c2c1"/></linearGradient><linearGradient id="linear-gradient-10" x1="537.81" y1="1768.7" x2="585.96" y2="1720.55" xlink:href="#linear-gradient"/><linearGradient id="linear-gradient-16" x1="466.09" y1="1760.14" x2="499.91" y2="1726.32" xlink:href="#linear-gradient"/><linearGradient id="linear-gradient-20" x1="258.63" y1="49.83" x2="270.35" y2="38.11" xlink:href="#linear-gradient-9"/><linearGradient id="linear-gradient-21" x1="275.63" y1="36.83" x2="287.35" y2="25.11" xlink:href="#linear-gradient-9"/></defs><title>logo_star_white</title><path class="cls-1" d="M347.61,1717a22.2,22.2,0,0,0,11.23,3.17c6.41,0,10.15-3.38,10.15-8.28,0-4.54-2.59-7.13-9.14-9.65-7.92-2.81-12.82-6.91-12.82-13.75,0-7.56,6.26-13.18,15.7-13.18a22.06,22.06,0,0,1,10.73,2.38l-1.73,5.11a19.34,19.34,0,0,0-9.22-2.3c-6.62,0-9.14,4-9.14,7.27,0,4.54,3,6.77,9.65,9.36,8.21,3.17,12.39,7.13,12.39,14.26,0,7.49-5.54,14-17,14-4.68,0-9.79-1.37-12.38-3.1Z" transform="translate(-346.02 -1675.29)"/><path class="cls-1" d="M391.17,1679.76v10h9.07v4.82h-9.07v18.79c0,4.32,1.22,6.77,4.75,6.77a14.11,14.11,0,0,0,3.67-.43l.29,4.75a15.52,15.52,0,0,1-5.62.86,8.78,8.78,0,0,1-6.84-2.66c-1.8-1.87-2.45-5-2.45-9.07v-19h-5.4v-4.82H385v-8.35Z" transform="translate(-346.02 -1675.29)"/><path class="cls-1" d="M426.67,1724.62l-.5-4.39h-.22a13,13,0,0,1-10.66,5.18c-7.06,0-10.66-5-10.66-10,0-8.42,7.49-13,21-13v-.72c0-2.88-.79-8.06-7.92-8.06a17.36,17.36,0,0,0-9.07,2.59l-1.44-4.18a21.63,21.63,0,0,1,11.45-3.1c10.66,0,13.25,7.27,13.25,14.26v13a49.11,49.11,0,0,0,.58,8.35Zm-.94-17.79c-6.91-.14-14.76,1.08-14.76,7.85,0,4.1,2.74,6,6,6a8.67,8.67,0,0,0,8.42-5.83,6.61,6.61,0,0,0,.36-2Z" transform="translate(-346.02 -1675.29)"/><path class="cls-1" d="M442.07,1700.64c0-4.1-.07-7.63-.29-10.87h5.54l.22,6.84h.29c1.58-4.68,5.4-7.63,9.65-7.63a6.83,6.83,0,0,1,1.8.22v6a9.48,9.48,0,0,0-2.16-.22c-4.46,0-7.63,3.38-8.5,8.14a17.84,17.84,0,0,0-.29,3v18.58h-6.26Z" transform="translate(-346.02 -1675.29)"/><path class="cls-1" d="M465.9,1699.2c0-3.6-.07-6.55-.29-9.43h5.62l.36,5.76h.14a12.82,12.82,0,0,1,11.52-6.55c4.82,0,12.31,2.88,12.31,14.83v20.81h-6.34v-20.09c0-5.62-2.09-10.3-8.06-10.3a9,9,0,0,0-8.5,6.48,9.11,9.11,0,0,0-.43,3v21H465.9Z" transform="translate(-346.02 -1675.29)"/><path class="cls-1" d="M537.4,1706.91c0,12.89-8.93,18.51-17.35,18.51-9.43,0-16.71-6.91-16.71-17.93,0-11.67,7.63-18.51,17.28-18.51C530.63,1689,537.4,1696.25,537.4,1706.91Zm-27.65.36c0,7.63,4.39,13.39,10.58,13.39s10.58-5.69,10.58-13.54c0-5.91-3-13.39-10.44-13.39S509.75,1700.64,509.75,1707.27Z" transform="translate(-346.02 -1675.29)"/><path class="cls-1" d="M553,1679.76v10h9.07v4.82H553v18.79c0,4.32,1.22,6.77,4.75,6.77a14.1,14.1,0,0,0,3.67-.43l.29,4.75a15.51,15.51,0,0,1-5.62.86,8.78,8.78,0,0,1-6.84-2.66c-1.8-1.87-2.45-5-2.45-9.07v-19h-5.4v-4.82h5.4v-8.35Z" transform="translate(-346.02 -1675.29)"/><path class="cls-1" d="M572.32,1708.35c.14,8.57,5.62,12.1,12,12.1a22.92,22.92,0,0,0,9.65-1.8l1.08,4.54a28.22,28.22,0,0,1-11.59,2.16c-10.73,0-17.14-7.06-17.14-17.57s6.19-18.79,16.35-18.79c11.38,0,14.4,10,14.4,16.42a23.86,23.86,0,0,1-.22,3Zm18.58-4.54c.07-4-1.66-10.3-8.79-10.3-6.41,0-9.22,5.9-9.72,10.3Z" transform="translate(-346.02 -1675.29)"/><polygon class="cls-2" points="260.98 11.24 260.98 27.17 275.98 18.74 260.98 11.24"/><path class="cls-3" d="M523,1751a7.61,7.61,0,0,0,3.83,1.16c2.11,0,3.1-1.06,3.1-2.38s-.83-2.15-3-2.94c-2.87-1-4.22-2.61-4.22-4.52,0-2.57,2.08-4.69,5.51-4.69a8,8,0,0,1,3.93,1l-.73,2.11a6.22,6.22,0,0,0-3.27-.92c-1.72,0-2.67,1-2.67,2.18s1,1.91,3,2.71c2.77,1.06,4.19,2.44,4.19,4.82,0,2.81-2.18,4.79-6,4.79a9.11,9.11,0,0,1-4.49-1.09Z" transform="translate(-346.02 -1675.29)"/><path class="cls-3" d="M550.93,1745.81c0,5.91-4.09,8.48-8,8.48-4.32,0-7.66-3.17-7.66-8.22,0-5.35,3.5-8.48,7.92-8.48C547.83,1737.59,550.93,1740.93,550.93,1745.81Zm-12.67.17c0,3.5,2,6.14,4.85,6.14s4.85-2.61,4.85-6.21c0-2.71-1.35-6.14-4.79-6.14S538.26,1742.94,538.26,1746Z" transform="translate(-346.02 -1675.29)"/><path class="cls-3" d="M566,1753.34a10.71,10.71,0,0,1-4.59.92c-4.82,0-8-3.27-8-8.15s3.37-8.48,8.58-8.48a9.72,9.72,0,0,1,4,.83l-.66,2.24a6.75,6.75,0,0,0-3.37-.76c-3.66,0-5.64,2.71-5.64,6,0,3.7,2.38,6,5.54,6a8.25,8.25,0,0,0,3.56-.79Z" transform="translate(-346.02 -1675.29)"/><path class="cls-3" d="M572.61,1733.47a1.8,1.8,0,0,1-3.6,0,1.77,1.77,0,0,1,1.81-1.82A1.72,1.72,0,0,1,572.61,1733.47Zm-3.24,20.46v-16h2.91v16Z" transform="translate(-346.02 -1675.29)"/><path class="cls-3" d="M585.95,1753.93l-.23-2h-.1a6,6,0,0,1-4.88,2.38,4.55,4.55,0,0,1-4.88-4.59c0-3.86,3.43-6,9.6-5.94v-.33c0-1.32-.36-3.7-3.63-3.7a8,8,0,0,0-4.16,1.19L577,1739a9.91,9.91,0,0,1,5.25-1.42c4.88,0,6.07,3.33,6.07,6.53v6a22.36,22.36,0,0,0,.26,3.83Zm-.43-8.15c-3.17-.07-6.77.5-6.77,3.6a2.57,2.57,0,0,0,2.74,2.77,4,4,0,0,0,3.86-2.67,3,3,0,0,0,.16-.92Z" transform="translate(-346.02 -1675.29)"/><path class="cls-3" d="M593,1730.5h2.9v23.43H593Z" transform="translate(-346.02 -1675.29)"/><path class="cls-4" d="M466.5,1742.41v1.65H450v-1.65Z" transform="translate(-346.02 -1675.29)"/><path class="cls-4" d="M483,1742.41v1.65H466.5v-1.65Z" transform="translate(-346.02 -1675.29)"/><path class="cls-4" d="M499.5,1742.41v1.65H483v-1.65Z" transform="translate(-346.02 -1675.29)"/><path class="cls-4" d="M516,1742.41v1.65H499.5v-1.65Z" transform="translate(-346.02 -1675.29)"/><polygon class="cls-5" points="260.98 36.24 260.98 52.17 275.98 43.74 260.98 36.24"/><polygon class="cls-6" points="277.98 23.24 277.98 39.17 292.98 30.74 277.98 23.24"/></svg>