<svg xmlns="http://www.w3.org/2000/svg" width="292.97" height="79.024" viewBox="0 0 292.97 79.024">
  <defs>
    <style>
      .cls-1 {
        fill: #fff;
      }
    </style>
  </defs>
  <g id="ic_star_hori" transform="translate(-0.01 -0.008)">
    <path id="Path_1" data-name="Path 1" class="cls-1" d="M347.61,1717a22.2,22.2,0,0,0,11.23,3.17c6.41,0,10.15-3.38,10.15-8.28,0-4.54-2.59-7.13-9.14-9.65-7.92-2.81-12.82-6.91-12.82-13.75,0-7.56,6.26-13.18,15.7-13.18a22.061,22.061,0,0,1,10.73,2.38l-1.73,5.11a19.338,19.338,0,0,0-9.22-2.3c-6.62,0-9.14,4-9.14,7.27,0,4.54,3,6.77,9.65,9.36,8.21,3.17,12.39,7.13,12.39,14.26,0,7.49-5.54,14-17,14-4.68,0-9.79-1.37-12.38-3.1Z" transform="translate(-346.02 -1675.29)"/>
    <path id="Path_2" data-name="Path 2" class="cls-1" d="M391.17,1679.76v10h9.07v4.82h-9.07v18.79c0,4.32,1.22,6.77,4.75,6.77a14.1,14.1,0,0,0,3.67-.43l.29,4.75a15.52,15.52,0,0,1-5.62.86,8.779,8.779,0,0,1-6.84-2.66c-1.8-1.87-2.45-5-2.45-9.07v-19h-5.4v-4.82H385v-8.35Z" transform="translate(-346.02 -1675.29)"/>
    <path id="Path_3" data-name="Path 3" class="cls-1" d="M426.67,1724.62l-.5-4.39h-.22a13,13,0,0,1-10.66,5.18c-7.06,0-10.66-5-10.66-10,0-8.42,7.49-13,21-13v-.72c0-2.88-.79-8.06-7.92-8.06a17.361,17.361,0,0,0-9.07,2.59l-1.44-4.18a21.629,21.629,0,0,1,11.45-3.1c10.66,0,13.25,7.27,13.25,14.26v13a49.106,49.106,0,0,0,.58,8.35Zm-.94-17.79c-6.91-.14-14.76,1.08-14.76,7.85,0,4.1,2.74,6,6,6a8.67,8.67,0,0,0,8.42-5.83,6.61,6.61,0,0,0,.36-2Z" transform="translate(-346.02 -1675.29)"/>
    <path id="Path_4" data-name="Path 4" class="cls-1" d="M442.07,1700.64c0-4.1-.07-7.63-.29-10.87h5.54l.22,6.84h.29c1.58-4.68,5.4-7.63,9.65-7.63a6.824,6.824,0,0,1,1.8.22v6a9.489,9.489,0,0,0-2.16-.22c-4.46,0-7.63,3.38-8.5,8.14a17.843,17.843,0,0,0-.29,3v18.58h-6.26Z" transform="translate(-346.02 -1675.29)"/>
    <path id="Path_5" data-name="Path 5" class="cls-1" d="M465.9,1699.2c0-3.6-.07-6.55-.29-9.43h5.62l.36,5.76h.14a12.821,12.821,0,0,1,11.52-6.55c4.82,0,12.31,2.88,12.31,14.83v20.81h-6.34v-20.09c0-5.62-2.09-10.3-8.06-10.3a9,9,0,0,0-8.5,6.48,9.111,9.111,0,0,0-.43,3v21H465.9Z" transform="translate(-346.02 -1675.29)"/>
    <path id="Path_6" data-name="Path 6" class="cls-1" d="M537.4,1706.91c0,12.89-8.93,18.51-17.35,18.51-9.43,0-16.71-6.91-16.71-17.93,0-11.67,7.63-18.51,17.28-18.51C530.63,1689,537.4,1696.25,537.4,1706.91Zm-27.65.36c0,7.63,4.39,13.39,10.58,13.39s10.58-5.69,10.58-13.54c0-5.91-3-13.39-10.44-13.39s-10.72,6.91-10.72,13.54Z" transform="translate(-346.02 -1675.29)"/>
    <path id="Path_7" data-name="Path 7" class="cls-1" d="M553,1679.76v10h9.07v4.82H553v18.79c0,4.32,1.22,6.77,4.75,6.77a14.093,14.093,0,0,0,3.67-.43l.29,4.75a15.512,15.512,0,0,1-5.62.86,8.78,8.78,0,0,1-6.84-2.66c-1.8-1.87-2.45-5-2.45-9.07v-19h-5.4v-4.82h5.4v-8.35Z" transform="translate(-346.02 -1675.29)"/>
    <path id="Path_8" data-name="Path 8" class="cls-1" d="M572.32,1708.35c.14,8.57,5.62,12.1,12,12.1a22.917,22.917,0,0,0,9.65-1.8l1.08,4.54a28.219,28.219,0,0,1-11.59,2.16c-10.73,0-17.14-7.06-17.14-17.57s6.19-18.79,16.35-18.79c11.38,0,14.4,10,14.4,16.42a23.855,23.855,0,0,1-.22,3Zm18.58-4.54c.07-4-1.66-10.3-8.79-10.3-6.41,0-9.22,5.9-9.72,10.3Z" transform="translate(-346.02 -1675.29)"/>
    <path id="Path_9" data-name="Path 9" class="cls-1" d="M523,1751a7.609,7.609,0,0,0,3.83,1.16c2.11,0,3.1-1.06,3.1-2.38s-.83-2.15-3-2.94c-2.87-1-4.22-2.61-4.22-4.52,0-2.57,2.08-4.69,5.51-4.69a8,8,0,0,1,3.93,1l-.73,2.11a6.22,6.22,0,0,0-3.27-.92c-1.72,0-2.67,1-2.67,2.18s1,1.91,3,2.71c2.77,1.06,4.19,2.44,4.19,4.82,0,2.81-2.18,4.79-6,4.79a9.111,9.111,0,0,1-4.49-1.09Z" transform="translate(-346.02 -1675.29)"/>
    <path id="Path_10" data-name="Path 10" class="cls-1" d="M550.93,1745.81c0,5.91-4.09,8.48-8,8.48-4.32,0-7.66-3.17-7.66-8.22,0-5.35,3.5-8.48,7.92-8.48C547.83,1737.59,550.93,1740.93,550.93,1745.81Zm-12.67.17c0,3.5,2,6.14,4.85,6.14s4.85-2.61,4.85-6.21c0-2.71-1.35-6.14-4.79-6.14s-4.91,3.17-4.91,6.23Z" transform="translate(-346.02 -1675.29)"/>
    <path id="Path_11" data-name="Path 11" class="cls-1" d="M566,1753.34a10.709,10.709,0,0,1-4.59.92c-4.82,0-8-3.27-8-8.15a8.137,8.137,0,0,1,8.58-8.48,9.717,9.717,0,0,1,4,.83l-.66,2.24a6.75,6.75,0,0,0-3.37-.76c-3.66,0-5.64,2.71-5.64,6,0,3.7,2.38,6,5.54,6a8.248,8.248,0,0,0,3.56-.79Z" transform="translate(-346.02 -1675.29)"/>
    <path id="Path_12" data-name="Path 12" class="cls-1" d="M572.61,1733.47a1.8,1.8,0,1,1-3.6,0,1.77,1.77,0,0,1,1.81-1.82,1.72,1.72,0,0,1,1.79,1.82Zm-3.24,20.46v-16h2.91v16Z" transform="translate(-346.02 -1675.29)"/>
    <path id="Path_13" data-name="Path 13" class="cls-1" d="M585.95,1753.93l-.23-2h-.1a6,6,0,0,1-4.88,2.38,4.55,4.55,0,0,1-4.88-4.59c0-3.86,3.43-6,9.6-5.94v-.33c0-1.32-.36-3.7-3.63-3.7a8,8,0,0,0-4.16,1.19L577,1739a9.911,9.911,0,0,1,5.25-1.42c4.88,0,6.07,3.33,6.07,6.53v6a22.358,22.358,0,0,0,.26,3.83Zm-.43-8.15c-3.17-.07-6.77.5-6.77,3.6a2.57,2.57,0,0,0,2.74,2.77,4,4,0,0,0,3.86-2.67,3,3,0,0,0,.16-.92Z" transform="translate(-346.02 -1675.29)"/>
    <path id="Path_14" data-name="Path 14" class="cls-1" d="M593,1730.5h2.9v23.43H593Z" transform="translate(-346.02 -1675.29)"/>
    <path id="Path_15" data-name="Path 15" class="cls-1" d="M483.49,1743.91v1.65H467v-1.65Z" transform="translate(-346.02 -1675.29)"/>
    <path id="Path_16" data-name="Path 16" class="cls-1" d="M500,1743.91v1.65H483.5v-1.65Z" transform="translate(-346.02 -1675.29)"/>
    <path id="Path_17" data-name="Path 17" class="cls-1" d="M516.49,1743.91v1.65H500v-1.65Z" transform="translate(-346.02 -1675.29)"/>
    <path id="Path_18" data-name="Path 18" class="cls-1" d="M260.98,11.24V27.17l15-8.43Z"/>
    <path id="Path_19" data-name="Path 19" class="cls-1" d="M260.98,36.24V52.17l15-8.43Z"/>
    <path id="Path_20" data-name="Path 20" class="cls-1" d="M277.98,23.24V39.17l15-8.43Z"/>
  </g>
</svg>
