<svg xmlns="http://www.w3.org/2000/svg" width="778.955" height="795" viewBox="0 0 778.955 795">
  <defs>
    <style>
      .cls-1 {
        fill: #fff;
      }
    </style>
  </defs>
  <path id="iconfinder_google_1608914" class="cls-1" d="M525.5,468.566H900.744a376.06,376.06,0,0,1,6.211,66.25q0,112.314-47.1,200.562T725.544,873.313Q638.332,923,525.5,923a390.757,390.757,0,0,1-154.756-31.313q-73.5-31.314-126.807-84.624T159.313,680.256a398.07,398.07,0,0,1,0-309.512q31.313-73.5,84.624-126.807t126.807-84.624A390.757,390.757,0,0,1,525.5,128q155.273,0,266.553,104.033L683.879,336.066Q620.217,274.475,525.5,274.475q-66.768,0-123.442,33.643a247.914,247.914,0,0,0-89.8,91.353q-33.125,57.71-33.125,126.03t33.125,126.03a247.914,247.914,0,0,0,89.8,91.353q56.675,33.643,123.442,33.643,45.029,0,82.813-12.422t62.109-31.055a224.714,224.714,0,0,0,42.441-42.441q18.115-23.809,26.655-45.029a190.175,190.175,0,0,0,11.646-40.371H525.5Z" transform="translate(-128 -128)"/>
</svg>
