<svg xmlns="http://www.w3.org/2000/svg" xmlns:xlink="http://www.w3.org/1999/xlink" viewBox="0 0 493 452"><defs><style>.cls-1{isolation:isolate;}.cls-2{mix-blend-mode:multiply;}.cls-3{stroke-miterlimit:10;fill:url(#linear-gradient);stroke:url(#linear-gradient-2);}</style><linearGradient id="linear-gradient" x1="10" y1="256" x2="502" y2="256" gradientUnits="userSpaceOnUse"><stop offset="0" stop-color="#fff"/><stop offset="0.03" stop-color="#ffebd8"/><stop offset="0.08" stop-color="#ffd4ac"/><stop offset="0.12" stop-color="#ffc084"/><stop offset="0.17" stop-color="#ffb063"/><stop offset="0.22" stop-color="#ffa249"/><stop offset="0.28" stop-color="#ff9734"/><stop offset="0.34" stop-color="#ff9025"/><stop offset="0.42" stop-color="#ff8b1d"/><stop offset="0.54" stop-color="#ff8a1a"/><stop offset="0.58" stop-color="#ef8118"/><stop offset="0.67" stop-color="#c56b14"/><stop offset="0.79" stop-color="#82460d"/><stop offset="0.94" stop-color="#261504"/><stop offset="1"/></linearGradient><linearGradient id="linear-gradient-2" x1="9.5" y1="256" x2="502.5" y2="256" gradientUnits="userSpaceOnUse"><stop offset="0" stop-color="#fff"/><stop offset="1" stop-color="#090909"/></linearGradient></defs><title>ic_attach_post</title><g class="cls-1"><g id="Layer_1" data-name="Layer 1"><g class="cls-2"><path class="cls-3" d="M396.89,31.27c-21.48,2.73-41,13.89-56.36,29.21L112.9,288.11c-10,10-17.71,22.64-20,36.64a64.09,64.09,0,0,0,73.76,73.88c14-2.27,26.62-9.91,36.65-19.94L411,171a10.25,10.25,0,0,0,0-14.5L396.5,142a10.25,10.25,0,0,0-14.5,0L172.24,351.77a23,23,0,0,1-32.51-32.51L372.26,86.72A51.64,51.64,0,0,1,409,71.5c28.66,0,52,23.32,52,52.69a51.72,51.72,0,0,1-14.61,36.14L204,411.08c-14.67,15.18-33.71,26.22-54.66,28.76-55.57,6.74-102.6-38.91-98-95.45C53,323,63.6,303.14,78.8,287.94L304.25,62.49a10.25,10.25,0,0,0,0-14.5L289.75,33.5a10.25,10.25,0,0,0-14.5,0L47.63,261.14C23.37,285.39,10,317.63,10,353a127.72,127.72,0,0,0,36.8,89c55.88,56.76,137.69,48.2,184,.28l245-253.51a93.45,93.45,0,0,0-79-157.54Z" transform="translate(-9.5 -30)"/></g></g></g></svg>