<svg id="Layer_1" data-name="Layer 1" xmlns="http://www.w3.org/2000/svg" viewBox="0 0 333 333"><defs><style>.cls-1{fill:#8a1fdf;}.cls-2{fill:#fff;}</style></defs><title>ic_add_new</title><circle class="cls-1" cx="166.5" cy="166.5" r="166.5"/><path class="cls-2" d="M567.84,375.76c26.18,0,35.61-25.8,38.07-47,3-26.11-9.51-45.76-38.07-45.76s-41.11,19.65-38.07,45.76C532.24,350,541.66,375.76,567.84,375.76Z" transform="translate(-403.5 -217)"/><path class="cls-2" d="M625.09,386.5q1.26,0,2.51.07a19.83,19.83,0,0,0-4.38-4.53c-5-3.7-11.55-4.91-17.31-7.14a75.51,75.51,0,0,1-7.67-3.39,41.89,41.89,0,0,1-60.82,0,75.5,75.5,0,0,1-7.67,3.39c-5.76,2.23-12.28,3.44-17.31,7.14-8.7,6.39-11,20.77-12.72,30.58A173.15,173.15,0,0,0,497,437.19c-.22,6.37,3,7.26,8.39,9.19A158.78,158.78,0,0,0,526.23,452c13.61,2.83,27.64,5,41.61,5.1a170,170,0,0,0,20.29-1.45,43.44,43.44,0,0,1-7.92-25C580.21,406.31,600.35,386.5,625.09,386.5Z" transform="translate(-403.5 -217)"/><path class="cls-2" d="M625.09,395.33c-19.83,0-35.91,15.82-35.91,35.34S605.27,466,625.09,466,661,450.18,661,430.66,644.92,395.33,625.09,395.33Zm15.71,41.4h-9.55v9.4a6.16,6.16,0,0,1-12.32,0v-9.4h-9.55a6.06,6.06,0,1,1,0-12.13h9.55v-9.4a6.16,6.16,0,0,1,12.32,0v9.4h9.55a6.06,6.06,0,1,1,0,12.13Z" transform="translate(-403.5 -217)"/></svg>