<?xml version="1.0" encoding="utf-8"?>
<!-- Generator: Adobe Illustrator 21.0.0, SVG Export Plug-In . SVG Version: 6.00 Build 0)  -->
<svg version="1.1" id="Layer_1" xmlns="http://www.w3.org/2000/svg" xmlns:xlink="http://www.w3.org/1999/xlink" x="0px" y="0px"
	 viewBox="0 0 333 333" style="enable-background:new 0 0 333 333;" xml:space="preserve">
<style type="text/css">
	.st0{fill:#F28E77;}
	.st1{fill:#FFFAFA;}
	.st2{fill:#FFFFFF;}
</style>
<title>ic_blood_new</title>
<circle class="st0" cx="166.5" cy="166.5" r="166.5"/>
<path class="st1" d="M167.5,254c-19.5,0-37.4-6.2-50.3-17.5c-13.9-12.1-21.2-29.1-21.2-49c0-17,11.5-42.3,34-75
	c16.5-24,33.2-43.5,33.4-43.7c2-2.2,5.4-2.5,7.6-0.5c0.2,0.2,0.3,0.3,0.5,0.5c0.2,0.2,16.9,19.7,33.4,43.7c22.6,32.8,34,58,34,75
	c0,19.9-7.3,36.8-21.2,49C204.9,247.8,187,254,167.5,254z"/>
<path class="st2" d="M205,112.5c-16.5-24-33.2-43.5-33.4-43.7c-1-1.2-2.5-1.9-4.1-1.9v187c19.5,0,37.4-6.2,50.3-17.5
	c13.9-12.1,21.2-29.1,21.2-49C239,170.6,227.5,145.3,205,112.5z"/>
<path class="st1" d="M200.1,221.3c-1.6,0-3.1-0.7-4.1-1.9c-1.9-2.3-1.7-5.7,0.6-7.7c6.6-5.8,10-13.9,10-24.1c0-3,2.4-5.4,5.4-5.4
	c3,0,5.4,2.4,5.4,5.4c0,0,0,0,0,0c0,13.5-4.6,24.4-13.7,32.4C202.7,220.8,201.4,221.3,200.1,221.3z"/>
</svg>
