<?xml version="1.0" encoding="utf-8"?>
<!-- Generator: Adobe Illustrator 21.0.0, SVG Export Plug-In . SVG Version: 6.00 Build 0)  -->
<svg version="1.1" id="Layer_1" xmlns="http://www.w3.org/2000/svg" xmlns:xlink="http://www.w3.org/1999/xlink" x="0px" y="0px"
	 viewBox="0 0 333 333" style="enable-background:new 0 0 333 333;" xml:space="preserve">
<style type="text/css">
	.st0{fill:#6D47EA;}
	.st1{fill:#FFFFFF;}
</style>
<title>ic_dictionary_new</title>
<circle class="st0" cx="166.5" cy="166.5" r="166.5"/>
<path class="st1" d="M177.4,172c-2.5,0.1-4.7,1.8-5.2,4.3v8.5c0.6,2.4,2.7,4.1,5.2,4.1c4.1,0,6.4-3.1,6.4-8.5
	C183.8,178.4,183.3,172,177.4,172z"/>
<polygon class="st1" points="126.4,176.1 133.6,176.1 129.9,163.6 "/>
<path class="st1" d="M107.4,81l-15.3,21.6v136.2l0,0V250h123.7v-0.1h0.4l22.8-16.7V81H107.4z M140,199.4l-3.9-12.4h-12.2l-3.6,12.4
	h-14.8l16.3-51.1h17.1l16.5,51.1L140,199.4z M192.6,195c-3.3,3.3-7.8,5.2-12.5,5.2c-3.7,0.1-7.3-1.2-10-3.6l-0.3,2.8h-12.1v-53.6
	H172v18c2.8-2,6.3-3.1,9.7-3c4.1-0.1,8,1.5,11,4.3c3.6,3.5,5.5,8.7,5.5,14.8S196.3,191.4,192.6,195z M226.6,227.2l-10.7,7.9V102.6
	H107.2l6.8-9.7h112.5L226.6,227.2L226.6,227.2z"/>
</svg>
