<?xml version="1.0" encoding="utf-8"?>
<!-- Generator: Adobe Illustrator 21.0.0, SVG Export Plug-In . SVG Version: 6.00 Build 0)  -->
<svg version="1.1" id="Layer_1" xmlns="http://www.w3.org/2000/svg" xmlns:xlink="http://www.w3.org/1999/xlink" x="0px" y="0px"
	 viewBox="0 0 333 333" style="enable-background:new 0 0 333 333;" xml:space="preserve">
<style type="text/css">
	.st0{fill:#8E1CE9;}
	.st1{fill:#FFFFFF;}
</style>
<title>ic_group_new</title>
<circle class="st0" cx="166.5" cy="166.5" r="166.5"/>
<path class="st1" d="M203.2,153.3c15.2,0,27.5-13,27.5-29.1S218.5,95,203.2,95s-27.5,13-27.5,29.1S188,153.3,203.2,153.3z
	 M129.8,153.3c15.2,0,27.5-13,27.5-29.1S145,95,129.8,95s-27.5,13-27.5,29.1S114.5,153.3,129.8,153.3L129.8,153.3z M129.8,172.7
	c-21.4,0-64.3,11.4-64.3,34V231H194v-24.3C194,184.1,151.2,172.7,129.8,172.7L129.8,172.7z M203.2,172.7c-2.7,0-5.7,0.2-8.9,0.5
	c10.7,8.2,18.1,19.1,18.1,33.5V231h55.1v-24.3C267.5,184.1,224.6,172.7,203.2,172.7L203.2,172.7z"/>
</svg>
