<svg id="Layer_1" data-name="Layer 1" xmlns="http://www.w3.org/2000/svg" viewBox="0 0 512 512"><defs><style>.cls-1{fill:#f41b86;}</style></defs><title>ic_link_new</title><path class="cls-1" d="M247,307.86a42.08,42.08,0,0,1-11.11,39.66l-33.37,33.38a42.28,42.28,0,0,1-59.5,0L131.11,369a42.25,42.25,0,0,1,0-59.51l33.37-33.37a42.62,42.62,0,0,1,39.63-11.08l13-13a58.88,58.88,0,0,0-64.31,12.46l-33.38,33.36a58.64,58.64,0,0,0,0,82.82l11.86,11.86a58.77,58.77,0,0,0,82.82,0l33.36-33.37A58.81,58.81,0,0,0,260,294.86Z"/><path class="cls-1" d="M307.71,191.09a13.18,13.18,0,0,0-9.34,3.87l-13.68,13.67L248.6,244.71l-21.95,21.95-18,18.05-13.68,13.67a13.21,13.21,0,0,0,18.68,18.68l53.67-53.66,36.09-36.09L317,213.63A13.22,13.22,0,0,0,317,195,13.06,13.06,0,0,0,307.71,191.09Z"/><path class="cls-1" d="M204.28,338a30.26,30.26,0,0,1-21.41-51.67l4.21-4.21a24.58,24.58,0,0,0-10.53,6.11l-33.36,33.37a25.21,25.21,0,0,0,0,35.38l11.86,11.86c9.34,9.34,26,9.34,35.38,0l33.37-33.37A24.68,24.68,0,0,0,230,324.8l-4.32,4.32A30.18,30.18,0,0,1,204.28,338Z"/><path class="cls-1" d="M256,0C114.84,0,0,114.84,0,256S114.84,512,256,512,512,397.16,512,256,397.16,0,256,0ZM404.6,226.21l-33.37,33.38a75.33,75.33,0,0,1-89,13l-9.46,9.46a75.93,75.93,0,0,1-13.17,89.16L226.21,404.6a75.84,75.84,0,0,1-107,0l-11.86-11.86a75.83,75.83,0,0,1,0-106.95l33.38-33.36a75.92,75.92,0,0,1,89.16-13.17l9.33-9.33a75.94,75.94,0,0,1,13.16-89.16l33.37-33.36a75.84,75.84,0,0,1,107,0l11.86,11.86a75.83,75.83,0,0,1,0,106.94Z"/><path class="cls-1" d="M324.91,229.91a24.61,24.61,0,0,0,10.53-6.11l33.38-33.37a25.05,25.05,0,0,0,0-35.37l-11.87-11.87c-9.34-9.32-26-9.33-35.38,0L288.2,176.55a24.51,24.51,0,0,0-6.11,10.52l4.21-4.21a30.28,30.28,0,0,1,42.82,42.82Z"/><path class="cls-1" d="M380.67,119.46a58.77,58.77,0,0,0-82.82,0l-33.36,33.37A58.81,58.81,0,0,0,252,217.15l13-13a42.47,42.47,0,0,1-1.16-9.87,41.77,41.77,0,0,1,12.24-29.76l33.37-33.37a42.29,42.29,0,0,1,59.5,0L380.88,143a42.1,42.1,0,0,1,0,59.5L347.5,235.86a42.52,42.52,0,0,1-39.63,11.07l-13,13a58.85,58.85,0,0,0,64.32-12.46l33.37-33.37a58.63,58.63,0,0,0,0-82.82Z"/></svg>