<svg id="Layer_1" data-name="Layer 1" xmlns="http://www.w3.org/2000/svg" xmlns:xlink="http://www.w3.org/1999/xlink" viewBox="0 0 271 267.33"><defs><style>.cls-1,.cls-2{isolation:isolate;}.cls-1{fill:url(#linear-gradient);}.cls-2{fill:url(#linear-gradient-2);}</style><linearGradient id="linear-gradient" x1="2.17" y1="176.17" x2="320.4" y2="176.17" gradientTransform="matrix(1, 0, 0, -1, -0.06, 352)" gradientUnits="userSpaceOnUse"><stop offset="0" stop-color="#f05922"/><stop offset="1" stop-color="#f6a300"/></linearGradient><linearGradient id="linear-gradient-2" x1="147.73" y1="120.75" x2="320.4" y2="120.75" xlink:href="#linear-gradient"/></defs><title>ic_new_plus_6.4.20</title><path class="cls-1" d="M162.6,309.5H202a1.32,1.32,0,0,0,1.32-1.32V203.7a1.32,1.32,0,0,1,1.32-1.32h86.91a18.6,18.6,0,0,0,18.6-18.6V149.86a1.32,1.32,0,0,0-1.32-1.32H203.55a1.32,1.32,0,0,1-1.32-1.32V59.77a17.61,17.61,0,0,0-17.61-17.61H148.26a1.32,1.32,0,0,0-1.32,1.32V146a1.32,1.32,0,0,1-1.32,1.32H58.72a19.56,19.56,0,0,0-19.56,19.56v33.75A1.32,1.32,0,0,0,40.49,202H146.2a1.32,1.32,0,0,1,1.32,1.32l.12,91.24A15,15,0,0,0,162.6,309.5Z" transform="translate(-39.17 -42.17)"/><path class="cls-2" d="M202.95,305c.17-32.73.19-65.4.37-98.13a4.58,4.58,0,0,1,4.48-4.54c56.5-1.2,73.89-.6,79.24-.6h.06a22.93,22.93,0,0,0,23.08-22.92v-21.2A4.56,4.56,0,0,0,305.6,153H224.95a99,99,0,0,0-16.69,1.27c-20.17,3.27-36.81,13.92-36.81,13.92-16.41,10.51-22.23,21.59-23.49,25a4.49,4.49,0,0,0-.28,1.58l.48,102.5c0,1,2.21,5.48,2.77,6.31,1.43,2.1,6.71,5.44,8.79,5.44l38.67.52A4.57,4.57,0,0,0,202.95,305Z" transform="translate(-39.17 -42.17)"/></svg>