<svg id="Capa_1" data-name="Capa 1" xmlns="http://www.w3.org/2000/svg" viewBox="0 0 413 309.75"><defs><style>.cls-1{fill:#303c42;opacity:0.95;}.cls-2{fill:#57c1ef;}.cls-3{fill:#7cb342;}.cls-4{fill:#010101;opacity:0.1;isolation:isolate;}.cls-5{fill:#f15a22;}</style></defs><title>ic_post_image</title><path class="cls-1" d="M223.66,314.87H378.53a41.34,41.34,0,0,0,41.3-41.3V46.43a41.34,41.34,0,0,0-41.3-41.3H48.13a41.34,41.34,0,0,0-41.3,41.3V273.58a41.34,41.34,0,0,0,41.3,41.3H203" transform="translate(-6.83 -5.13)"/><path class="cls-2" d="M42.67,21.33H384a21.36,21.36,0,0,1,21.33,21.33v188L274.21,99.51a10.66,10.66,0,0,0-7.54-3.12c-3.59-.39-5.58,1.14-7.58,3.17l-93.28,94.22-30.26-30.26a10.66,10.66,0,0,0-15.08,0L21.33,262.64v-220A21.36,21.36,0,0,1,42.67,21.33Z" transform="translate(-6.83 -5.13)"/><path class="cls-3" d="M386.17,295.8H40.44a21.25,21.25,0,0,1-17.66-9.88l104.1-104.1,56.79,56.79a10.8,10.8,0,0,0,15.28-15.28l-18.5-18.5L267.37,117,407.78,257.46v16.73A21.64,21.64,0,0,1,386.17,295.8Z" transform="translate(-6.83 -5.13)"/><path class="cls-4" d="M387.06,269.37H39.54c-.32,0-.6-.11-.92-.12L22.53,285.34a1.26,1.26,0,0,0-.14,1.63A21.21,21.21,0,0,0,39.54,296H385.79a23,23,0,0,0,23-23V258a1.27,1.27,0,0,0-.37-.9h0a1.26,1.26,0,0,0-2,.33A21.68,21.68,0,0,1,387.06,269.37Z" transform="translate(-6.83 -5.13)"/><circle class="cls-1" cx="163.83" cy="80.63" r="38"/><circle class="cls-5" cx="163.83" cy="80.63" r="25"/></svg>