<svg id="Layer_1" data-name="Layer 1" xmlns="http://www.w3.org/2000/svg" viewBox="0 0 333 333"><defs><style>.cls-1{fill:#fea65f;}.cls-2{fill:#fff;}</style></defs><title>ic_pages_new</title><circle class="cls-1" cx="166.5" cy="166.5" r="166.5"/><path class="cls-2" d="M81,106.39v52.17h47.5l-5.7-20.69c-1.71-6.43,4.56-12.17,11.59-10.61L157,132.47V89H100C89.55,89,81,96.83,81,106.39Zm47.5,69.56H81v52.17c0,9.56,8.55,17.39,19,17.39h57V202l-22.61,5.22c-6.94,1.57-13.3-4.17-11.5-10.52Zm70.11,31.3L176,202V245.5h57c10.45,0,19-7.82,19-17.39V175.94H204.5l5.7,20.69C211.91,203.07,205.64,208.81,198.61,207.24ZM233,89H176v43.47l22.61-5.22c6.94-1.56,13.3,4.17,11.5,10.52l-5.61,20.78H252V106.39C252,96.83,243.45,89,233,89Z"/></svg>