<svg id="Layer_1" data-name="Layer 1" xmlns="http://www.w3.org/2000/svg" viewBox="0 0 104.68 101.41"><defs><style>.cls-1{fill:#f05922;stroke:#f05922;stroke-miterlimit:10;}</style></defs><title>ic_star_filled</title><path class="cls-1" d="M278.59,155.27h0a19,19,0,0,1,.27-7.16c1.46-5.52,6.56-8.1,11.66-9.72l-34.25,3.84a4.78,4.78,0,0,0-2.77,8.35L274,168.78Z" transform="translate(-251.38 -106.34)"/><path class="cls-1" d="M351.35,142l-26.82-2.14,4.4,11c.08.26,0,.47-.2.47s-.15,0-.21-.16l-23.85-42.81a2.68,2.68,0,0,0-4.89.12l-11.7,27,7.7.61c1.37-3.68,5.64-3.95,8.08-2.08.2,0,.4,0,.6,0,1.62,0,3.1.67,4.71.7a4.67,4.67,0,0,1,4.31,2.59c4.62.89,5.29,4.86,6.34,8.75.72,2.63,1.86,5.17,2.72,7.75,1.71,5.1,4.66,12.93.84,17.74a7.57,7.57,0,0,1-1.78,1.67c-.93,3.56-2.92,6.58-5.73,7.73a72.59,72.59,0,0,1-9.3,7l-1,.67q-1.34.85-2.6,1.61l.23-.14,25.61,15.14a4.64,4.64,0,0,0,6.86-5l-6.32-27.47-9.71,7.22c9.65-11.9,24.27-22.35,34.09-29.62A4.6,4.6,0,0,0,351.35,142Z" transform="translate(-251.38 -106.34)"/><path class="cls-1" d="M297,193.55a11.49,11.49,0,0,1-1.57.75l.56-.64a10.38,10.38,0,0,1-4.82.67c-3.34-.32-5.55-2.93-4.82-6.33a30.84,30.84,0,0,1,2.16-6.34,16.29,16.29,0,0,1-3.51-2.53c-4-3.73-5.46-10.27-4.12-15.76a30,30,0,0,1-2.07-6.79l-9.43,46.32a3.58,3.58,0,0,0,1.5,3.8,3.36,3.36,0,0,0,1.83.53,4.21,4.21,0,0,0,1.49-.29,16.06,16.06,0,0,0,2.32-1.07l28-16.39c-.76.44-4.86,2.61-5.51,3S297.54,193.27,297,193.55Z" transform="translate(-251.38 -106.34)"/><polygon class="cls-1" points="5.47 36.83 6.92 35.74 32.3 31.7 44.96 30.35 31.02 34.66 5.47 36.83"/><path class="cls-1" d="M279.5,144.5" transform="translate(-251.38 -106.34)"/><path class="cls-1" d="M299.5,130.5c3.51-.65,6.29.48,10,2a20.72,20.72,0,0,1,8,5c1.53,1.64,2.37,3.45,4,7,2.59,5.66,4.36,9.52,5,15a24,24,0,0,1,0,8c-1.35,7-6.1,11.38-9,14-2.19,2-4.27,3.38-11,7-4.37,2.35-10.47,5.5-18,9a36.79,36.79,0,0,1-5-7c-4.06-7.39-4.63-14.54-5-20a65.68,65.68,0,0,1,0-9,72.74,72.74,0,0,1-2-15q-.06-2.06,0-4c5-2.33,14-3.67,19-6C297.5,135.5,295.37,131.27,299.5,130.5Z" transform="translate(-251.38 -106.34)"/></svg>