<?xml version="1.0" encoding="utf-8"?>
<!-- Generator: Adobe Illustrator 21.0.0, SVG Export Plug-In . SVG Version: 6.00 Build 0)  -->
<svg version="1.1" id="Layer_1" xmlns="http://www.w3.org/2000/svg" xmlns:xlink="http://www.w3.org/1999/xlink" x="0px" y="0px"
	 viewBox="0 0 333 333" style="enable-background:new 0 0 333 333;" xml:space="preserve">
<style type="text/css">
	.st0{fill:#1551FA;}
	.st1{fill:#FFFFFF;}
</style>
<title>ic_settings_new</title>
<circle class="st0" cx="166.5" cy="166.5" r="166.5"/>
<path class="st1" d="M267.4,189.6L248,174.8c0.3-2.6,0.4-5.2,0.5-7.8c0-2.6-0.2-5.2-0.5-7.8l19.5-14.8c3.6-2.8,4.6-7.9,2.3-11.8
	l-20.2-34.1c-2.3-4.1-7.3-5.8-11.7-4.1l-22.9,9c-4.3-3-8.9-5.7-13.8-7.8l-3.5-23.7c-0.7-4.6-4.7-8-9.3-7.9h-40.5
	c-4.6-0.1-8.6,3.3-9.3,7.8l-3.5,23.8c-4.8,2.1-9.4,4.7-13.8,7.8l-23-9c-4.3-1.6-9.2,0.1-11.6,4l-20.3,34.1c-2.4,4-1.4,9.1,2.3,11.9
	L88,159.2c-0.6,5.2-0.6,10.4,0,15.5l-19.5,14.8c-3.6,2.8-4.6,7.9-2.3,11.8l20.2,34.1c2.3,4.1,7.3,5.8,11.7,4.1l22.9-9
	c4.3,3,8.9,5.6,13.8,7.8l3.5,23.7c0.7,4.6,4.7,8,9.3,7.9h40.5c4.6,0.1,8.6-3.3,9.3-7.8l3.5-23.8c4.8-2.1,9.4-4.8,13.8-7.8l23,9
	c1.1,0.4,2.3,0.6,3.5,0.6c3.4,0,6.5-1.8,8.2-4.6l20.3-34.3C272,197.3,271,192.3,267.4,189.6z M168,201.3
	c-19.4,0-35.3-15.4-35.3-34.3s15.8-34.3,35.3-34.3s35.3,15.4,35.3,34.3S187.5,201.3,168,201.3z"/>
</svg>
