<svg id="Layer_1" data-name="Layer 1" xmlns="http://www.w3.org/2000/svg" viewBox="0 0 104.68 101.41"><defs><style>.cls-1{fill:#f05922;stroke:#f05922;stroke-miterlimit:10;}.cls-2{fill:#fff;}</style></defs><title>ic_star_outline</title><path class="cls-1" d="M418.35,220l-26.82-2.14,4.4,11c.08.26,0,.47-.2.47s-.15,0-.21-.16l-23.85-42.81a2.68,2.68,0,0,0-4.89.12l-11.7,27,13.68,1.08a.27.27,0,0,1,.25.2l2.4-.25h0l-6,5.61-6.46,6a5.52,5.52,0,0,1,.58.15,5.28,5.28,0,0,1,.54.21,4.84,4.84,0,0,1,1,.58,4.13,4.13,0,0,1,1.05,1.19,3.71,3.71,0,0,1,.23.47l0,.07,13-14,3.33-.27L364,230.05a5.08,5.08,0,0,1,1.24.28,4.06,4.06,0,0,1,1.54,1,3.48,3.48,0,0,1,.37.45l.12.2,0,.08,5.47.27.91.06a18.79,18.79,0,0,1,3.08.54,17.6,17.6,0,0,1,5.62,2.59,16.51,16.51,0,0,1,2.38,2q.42.43.78.88a12.78,12.78,0,0,1,1.76,2.83,12.57,12.57,0,0,1,.93,3.06q.09.53.14,1.06t.06,1.07c0,.39,0,.78,0,1.18a17.1,17.1,0,0,1-.52,3.2,21,21,0,0,1-1.17,3.29c0,.11-.11.22-.17.33a8.9,8.9,0,0,1-.46.79,16.75,16.75,0,0,1-2,2.45,64.21,64.21,0,0,1-10.54,8.19l-1,.67c-1,.66-2.06,1.29-3,1.87-1.29.77-2.48,1.46-3.51,2-.77.43-1.45.8-2,1.09a11.49,11.49,0,0,1-1.57.75l1.76-2,1-1.15,1.15-1.32,1.26-1.44,2.66-3,6.5-7.41a3.47,3.47,0,0,1-1.9-1.15,6.51,6.51,0,0,1-1.11-1.87l-15.92,18-1.8-.95h0l16.11-18a4.11,4.11,0,0,1-3.16-2.13c-.09-.16-.17-.31-.23-.44a3.53,3.53,0,0,1-.16-.43,25.49,25.49,0,0,1-6.79-.21q-.9-.15-1.75-.37a19.42,19.42,0,0,1-6.68-3.11,17.24,17.24,0,0,1-2.29-2q-.52-.54-1-1.12a15.52,15.52,0,0,1-2.7-5.08l-.53-1.73-.06-.8a16.49,16.49,0,0,1,3.24-11.18,18.39,18.39,0,0,1,2-2.31,19.77,19.77,0,0,1,2.46-2,21.52,21.52,0,0,1,2.87-1.68c5.46-1.91,15.14-5,3.26-1.29l-37.42,4.2a4.78,4.78,0,0,0-2.77,8.35L341,246.78l4.56-13.51c0-.1.08-.15.14-.15s.21.13.32.31l0-.24h0s.41,1.21.41,1.21h0a6.36,6.36,0,0,0-.45-1l-9.67,47.48a3.58,3.58,0,0,0,1.5,3.8,3.36,3.36,0,0,0,1.83.53,4.21,4.21,0,0,0,1.49-.29,16.06,16.06,0,0,0,2.32-1.07L370.16,268l25.61,15.14a4.64,4.64,0,0,0,6.86-5l-6.32-27.47-9.71,7.22c9.65-11.9,24.27-22.35,34.09-29.62A4.6,4.6,0,0,0,418.35,220Z" transform="translate(-318.38 -184.34)"/><path class="cls-1" d="M383.55,261.38a21.3,21.3,0,0,0,5.63-10.87c.64-3,1.58-7.47-.62-11.62-3.09-5.83-10.47-7.52-13.62-8.25-5.15-1.18-8.8-.51-9-1.5-.34-1.69,10.5-2.8,13.25-9.75,1.05-2.66,1.13-6.73-1.25-8.62-2.18-1.73-5.76-1.14-8,.38a7.67,7.67,0,0,0-2.37,2.63l-21.87,7.38a151.85,151.85,0,0,1,1.63,26c-.14,5.09.56,10.16.75,15.25.15,3.86.39,11.05,3.13,11.88.41.12.61,0,3,.25,1.37.13,2.49.27,3.25.38a94,94,0,0,1,14.25-7.5C377.72,264.84,380.4,264.48,383.55,261.38Z" transform="translate(-318.38 -184.34)"/><polygon class="cls-1" points="5.47 36.83 6.92 35.74 32.3 31.7 44.96 30.35 31.02 34.66 5.47 36.83"/><path class="cls-2" d="M342,278.88c1.76-10.5,3.22-21.38,5-31.88-7.25-7-15.75-15-23-22,10.41-2,22.35-2.52,32.76-4.5,4.19-9.37,9.06-19.13,13.24-28.5,5.59,10,10.49,20.3,16.08,30.26,9.82,1.31,21.1,1.44,30.92,2.74-8.15,7.66-18.85,15.34-27,23,1.94,9.59,5,20.34,6.89,29.93l-26.22-15.27-26.89,15.27c-1.08.63-.84.63-1.93,1.26" transform="translate(-318.38 -184.34)"/></svg>