<svg xmlns="http://www.w3.org/2000/svg" width="512" height="384" viewBox="0 0 512 384">
  <defs>
    <style>
      .cls-1 {
        fill: #fff;
      }
    </style>
  </defs>
  <g id="mail_1_" data-name="mail (1)" transform="translate(0 -64)">
    <g id="Group_2" data-name="Group 2">
      <g id="Group_1" data-name="Group 1">
        <path id="Path_1" data-name="Path 1" class="cls-1" d="M10.688,95.156C80.958,154.667,204.26,259.365,240.5,292.01c4.865,4.406,10.083,6.646,15.5,6.646s10.615-2.219,15.469-6.6c36.271-32.677,159.573-137.385,229.844-196.9a10.659,10.659,0,0,0,1.5-14.719A42.36,42.36,0,0,0,469.333,64H42.667A42.356,42.356,0,0,0,9.188,80.438,10.658,10.658,0,0,0,10.688,95.156Z"/>
        <path id="Path_2" data-name="Path 2" class="cls-1" d="M505.813,127.406a10.618,10.618,0,0,0-11.375,1.542C416.51,195.01,317.052,279.688,285.76,307.885c-17.563,15.854-41.938,15.854-59.542-.021-33.354-30.052-145.042-125-208.656-178.917A10.667,10.667,0,0,0,0,137.083v268.25A42.708,42.708,0,0,0,42.667,448H469.334A42.708,42.708,0,0,0,512,405.333V137.083A10.66,10.66,0,0,0,505.813,127.406Z"/>
      </g>
    </g>
  </g>
</svg>
