<svg xmlns="http://www.w3.org/2000/svg" width="34.457" height="20.704" viewBox="0 0 34.457 20.704">
  <g id="Group_286" data-name="Group 286" transform="translate(-302.075 -74)">
    <path id="Path_63" data-name="Path 63" d="M308.681,38.2h-.532V36.17h.532a3.114,3.114,0,0,0,3.051-3.119V32.034h-3.051V30h5.085v3.051A5.15,5.15,0,0,1,308.681,38.2Zm0,0" transform="translate(14.691 46.034)" fill="#fff"/>
    <path id="Path_64" data-name="Path 64" d="M126.618,38.2h-.532A5.15,5.15,0,0,1,121,33.051V30h5.085v2.034h-3.051v1.017a3.113,3.113,0,0,0,3.051,3.119h.532Zm0,0" transform="translate(189.149 46.034)" fill="#fff"/>
    <path id="Path_65" data-name="Path 65" d="M181,0V7.187a4.962,4.962,0,0,0,.529,2.238,11.686,11.686,0,0,0,1.709,2.38c.9,1.078,1.831,2.177,1.831,3.112v2.441H187.1V14.917c0-.936.936-2.034,1.831-3.112a12.156,12.156,0,0,0,1.709-2.359,5.112,5.112,0,0,0,.529-2.258V0Zm0,0" transform="translate(133.218 74)" fill="#fff"/>
    <path id="Path_66" data-name="Path 66" d="M257.017,17.358H256V0h5.085V7.187a5.112,5.112,0,0,1-.529,2.258,12.158,12.158,0,0,1-1.709,2.359c-.9,1.078-1.831,2.177-1.831,3.112Zm0,0" transform="translate(63.303 74)" fill="#fff"/>
    <path id="Path_67" data-name="Path 67" d="M336.934,143.848l-3.818-2.006-3.816,2.006.729-4.25-3.087-3.01,4.266-.62,1.908-3.867,1.908,3.867,4.336.62L336.2,139.6Zm0,0" transform="translate(-2.828 -49.144)" fill="#fff"/>
    <path id="Path_68" data-name="Path 68" d="M11.978,143.852l-3.816-2.006-3.818,2.006.731-4.25-3.157-3.01,4.336-.62,1.908-3.867,1.908,3.867,4.266.62-3.087,3.01Zm0,0" transform="translate(300.157 -49.148)" fill="#fff"/>
    <path id="Path_70" data-name="Path 70" d="M211,241h6.1v2.034H211Zm0,0" transform="translate(105.252 -150.659)" fill="#fff"/>
    <path id="Path_71" data-name="Path 71" d="M256,241h3.051v2.034H256Zm0,0" transform="translate(63.303 -150.659)" fill="#fff"/>
  </g>
</svg>
