<svg id="Layer_1" data-name="Layer 1" xmlns="http://www.w3.org/2000/svg" xmlns:xlink="http://www.w3.org/1999/xlink" viewBox="0 0 473.74 128.6"><defs><style>.cls-1,.cls-10,.cls-11,.cls-12,.cls-13,.cls-14,.cls-15,.cls-16,.cls-17,.cls-18,.cls-19,.cls-2,.cls-20,.cls-21,.cls-3,.cls-4,.cls-5,.cls-6,.cls-7,.cls-8,.cls-9{stroke:#fff;stroke-miterlimit:10;}.cls-1{fill:url(#linear-gradient);}.cls-2,.cls-3,.cls-4{stroke-width:0.5px;}.cls-2{fill:url(#linear-gradient-2);}.cls-3{fill:url(#linear-gradient-3);}.cls-4{fill:url(#linear-gradient-4);}.cls-5{fill:url(#linear-gradient-5);}.cls-6{fill:url(#linear-gradient-6);}.cls-7{fill:url(#linear-gradient-7);}.cls-8{fill:none;}.cls-9{fill:url(#linear-gradient-8);}.cls-10{fill:url(#linear-gradient-9);}.cls-11{fill:url(#linear-gradient-10);}.cls-12{fill:#fff;}.cls-13{fill:url(#linear-gradient-11);}.cls-14{fill:url(#linear-gradient-12);}.cls-15{fill:url(#linear-gradient-13);}.cls-16{fill:url(#linear-gradient-14);}.cls-17{fill:url(#linear-gradient-15);}.cls-18{fill:url(#linear-gradient-16);}.cls-19{fill:url(#linear-gradient-17);}.cls-20{fill:url(#linear-gradient-18);}.cls-21{fill:url(#linear-gradient-19);}</style><linearGradient id="linear-gradient" x1="331.06" y1="328.19" x2="430.59" y2="328.19" gradientUnits="userSpaceOnUse"><stop offset="0" stop-color="#f05922"/><stop offset="0.03" stop-color="#f05b21"/><stop offset="0.68" stop-color="#f48f09"/><stop offset="1" stop-color="#f6a300"/></linearGradient><linearGradient id="linear-gradient-2" x1="417.14" y1="50.89" x2="441.59" y2="50.89" gradientUnits="userSpaceOnUse"><stop offset="0" stop-color="#fd7f16"/><stop offset="0.16" stop-color="#fb8711"/><stop offset="0.66" stop-color="#f79b05"/><stop offset="1" stop-color="#f6a300"/></linearGradient><linearGradient id="linear-gradient-3" x1="417.63" y1="91.32" x2="442.08" y2="91.32" xlink:href="#linear-gradient-2"/><linearGradient id="linear-gradient-4" x1="448.79" y1="70.95" x2="473.24" y2="70.95" xlink:href="#linear-gradient-2"/><linearGradient id="linear-gradient-5" x1="174.83" y1="257.32" x2="226.15" y2="257.32" gradientUnits="userSpaceOnUse"><stop offset="0" stop-color="#f05922"/><stop offset="1" stop-color="#f1611e"/></linearGradient><linearGradient id="linear-gradient-6" x1="230.86" y1="259.13" x2="268.57" y2="259.13" gradientUnits="userSpaceOnUse"><stop offset="0" stop-color="#f1651c"/><stop offset="1" stop-color="#f2671b"/></linearGradient><linearGradient id="linear-gradient-7" x1="273.7" y1="265.77" x2="319.34" y2="265.77" gradientUnits="userSpaceOnUse"><stop offset="0" stop-color="#f2691a"/><stop offset="1" stop-color="#f26c19"/></linearGradient><linearGradient id="linear-gradient-8" x1="331.06" y1="265.1" x2="368.01" y2="265.1" gradientUnits="userSpaceOnUse"><stop offset="0" stop-color="#f37814"/><stop offset="1" stop-color="#f47e11"/></linearGradient><linearGradient id="linear-gradient-9" x1="373.8" y1="265.08" x2="422.26" y2="265.08" gradientUnits="userSpaceOnUse"><stop offset="0" stop-color="#f4840e"/><stop offset="1" stop-color="#f58b0b"/></linearGradient><linearGradient id="linear-gradient-10" x1="431.07" y1="265.77" x2="482.15" y2="265.77" gradientUnits="userSpaceOnUse"><stop offset="0" stop-color="#f58e09"/><stop offset="1" stop-color="#f59108"/></linearGradient><linearGradient id="linear-gradient-11" x1="486.78" y1="259.12" x2="524.51" y2="259.12" gradientUnits="userSpaceOnUse"><stop offset="0" stop-color="#f59407"/><stop offset="1" stop-color="#f59805"/></linearGradient><linearGradient id="linear-gradient-12" x1="528.65" y1="265.78" x2="575.71" y2="265.78" gradientUnits="userSpaceOnUse"><stop offset="0" stop-color="#f59d03"/><stop offset="1" stop-color="#f6a300"/></linearGradient><linearGradient id="linear-gradient-13" x1="493.01" y1="332.34" x2="515.59" y2="332.34" gradientUnits="userSpaceOnUse"><stop offset="0" stop-color="#f37814"/><stop offset="1" stop-color="#f4840e"/></linearGradient><linearGradient id="linear-gradient-14" x1="519.26" y1="310.92" x2="529.6" y2="310.92" gradientUnits="userSpaceOnUse"><stop offset="0" stop-color="#f4840e"/><stop offset="1" stop-color="#f58e09"/></linearGradient><linearGradient id="linear-gradient-15" x1="345.61" y1="113.6" x2="354.85" y2="113.6" xlink:href="#linear-gradient-14"/><linearGradient id="linear-gradient-16" x1="563.46" y1="327.38" x2="576.26" y2="327.38" gradientUnits="userSpaceOnUse"><stop offset="0" stop-color="#f59407"/><stop offset="0.43" stop-color="#f69d03"/><stop offset="1" stop-color="#f6a300"/></linearGradient><linearGradient id="linear-gradient-17" x1="438.89" y1="331.94" x2="458.89" y2="331.94" gradientUnits="userSpaceOnUse"><stop offset="0" stop-color="#f1651c"/><stop offset="1" stop-color="#f2691a"/></linearGradient><linearGradient id="linear-gradient-18" x1="463.52" y1="332.39" x2="488.52" y2="332.39" gradientUnits="userSpaceOnUse"><stop offset="0" stop-color="#f2691a"/><stop offset="1" stop-color="#f37814"/></linearGradient><linearGradient id="linear-gradient-19" x1="534.75" y1="332.4" x2="556.75" y2="332.4" gradientUnits="userSpaceOnUse"><stop offset="0" stop-color="#f58e09"/><stop offset="1" stop-color="#f59407"/></linearGradient></defs><title>Starnote Social_bolt_logo</title><path class="cls-1" d="M331.87,325.74h97.92a.88.88,0,0,1,.8.93v3a.88.88,0,0,1-.8.93H331.87a.88.88,0,0,1-.8-.93v-3A.88.88,0,0,1,331.87,325.74Z" transform="translate(-174.2 -218.76)"/><polygon class="cls-2" points="417.14 36.78 441.59 50.87 417.17 65 417.14 36.78"/><polygon class="cls-3" points="417.63 77.21 442.08 91.3 417.65 105.44 417.63 77.21"/><polygon class="cls-4" points="448.79 56.84 473.24 70.92 448.81 85.06 448.79 56.84"/><path class="cls-5" d="M174.83,284.8l9.95-13.32a40.68,40.68,0,0,0,6.93,4.79,21.24,21.24,0,0,0,7.59,2.38,14,14,0,0,0,5.15-.5,4.69,4.69,0,0,0,2.42-1.33,4.58,4.58,0,0,0,1-2.08,4.91,4.91,0,0,0,0-2.58c-.13-.41-.5-1.4-2.5-2.83a18.3,18.3,0,0,0-4-2.08s-2.33-1-5.67-2.42c-2.5-1.08-4-1.73-5.92-2.75a32.78,32.78,0,0,1-4.08-2.42,21.3,21.3,0,0,1-5.75-6.67,22.82,22.82,0,0,1-1.5-18.5,23,23,0,0,1,7.08-9.75,24.43,24.43,0,0,1,10.67-4.83,28.67,28.67,0,0,1,7.83-.58,30.38,30.38,0,0,1,12.17,3.5,31,31,0,0,1,8.1,6.21l-8.87,12.23c-.51-.4-1.19-.92-2-1.48a28,28,0,0,0-2.71-1.65,19.84,19.84,0,0,0-4.83-1.77,19,19,0,0,0-5.71-.25,8.42,8.42,0,0,0-1.67.4,5.24,5.24,0,0,0-2,1.1,4.5,4.5,0,0,0-1.15,1.79,4.4,4.4,0,0,0,0,3,4.1,4.1,0,0,0,.92,1.4c2,2,8.24,4.33,8.71,4.5,2.61,1.19,4.25,1.89,5.29,2.31.1,0,1.12.46,2.46,1,1.1.48,1.55.7,1.73.79.37.19,1.23.61,2.17,1.19a21.28,21.28,0,0,1,3,2.25,19.44,19.44,0,0,1,3.56,4.27,20.12,20.12,0,0,1,2,4.48,24.64,24.64,0,0,1,.75,10.88,23.66,23.66,0,0,1-4,9.88A24.09,24.09,0,0,1,214.3,292a26,26,0,0,1-9,3A32,32,0,0,1,195,295a35.83,35.83,0,0,1-18.25-8.31,9.95,9.95,0,0,1-1.91-1.84Z" transform="translate(-174.2 -218.76)"/><path class="cls-6" d="M268.57,293.18c-.71.27-1.61.6-2.68.91a32.38,32.38,0,0,1-4.72,1,31.66,31.66,0,0,1-6.19.22,21.2,21.2,0,0,1-3.37-.41,16.23,16.23,0,0,1-5.44-2.09,15.82,15.82,0,0,1-4.84-4.75,17.25,17.25,0,0,1-1.53-3,30,30,0,0,1-1.91-7.56c0-.46-.15-1.59-.25-2.84-.06-.77-.1-1.4-.12-1.84V252.68h-6.66V238.27l7.69-.72,2.16-14.66h14.5v14.59h11.72q0,7.61-.06,15.22H255.29v19c0,.26,0,.61,0,1a12.12,12.12,0,0,0,.38,2.69,6.82,6.82,0,0,0,1,2.41,5.49,5.49,0,0,0,2.31,1.91,5.91,5.91,0,0,0,2,.44,9.56,9.56,0,0,0,2.94-.28,14.37,14.37,0,0,0,2-.59q1.44,6.64,2.56,13.48Z" transform="translate(-174.2 -218.76)"/><path class="cls-7" d="M319.27,260a43.23,43.23,0,0,0-.6-5.77,31,31,0,0,0-1.06-4.42,22.66,22.66,0,0,0-1.19-3,18.8,18.8,0,0,0-2-3.33,17.11,17.11,0,0,0-8.35-6,21.62,21.62,0,0,0-5.23-1.08,28,28,0,0,0-3.87-.1,36.17,36.17,0,0,0-6.15.71,38.4,38.4,0,0,0-7.73,2.52,44.81,44.81,0,0,0-4.17,2c-1.39.77-2.57,1.52-3.54,2.18l.09.19q3.1,6.21,6.11,12.44a44.1,44.1,0,0,1,4.72-2.54,25.9,25.9,0,0,1,3-1.21,16.88,16.88,0,0,1,4.12-.93,11.59,11.59,0,0,1,3.92.26,6.21,6.21,0,0,1,1.85.76,5.3,5.3,0,0,1,1.78,2,6.85,6.85,0,0,1,.62,2.11c.05.31.08.57.09.75-1.26.14-3,.36-5.09.73a51.48,51.48,0,0,0-8.76,2.19,30.45,30.45,0,0,0-5.39,2.42,19.37,19.37,0,0,0-3.12,2.18,16.8,16.8,0,0,0-4.62,6.8,17.82,17.82,0,0,0-.88,7.59,20.44,20.44,0,0,0,.91,5,16.91,16.91,0,0,0,1.94,4.21A14.65,14.65,0,0,0,281,293a14.88,14.88,0,0,0,4.82,2,16,16,0,0,0,6.06.14,17.11,17.11,0,0,0,5.45-1.92,24.12,24.12,0,0,0,5.24-3.87c.35-.33.64-.61.83-.81h.42l1.27,5.4h14.29V262.5C319.34,261.87,319.32,261,319.27,260Zm-20.52,19.16c-.8.79-2.48.94-3.94.94-5.66,0-5-6.62-1.06-8.06,1.72-1.06,4.1-2.47,5.88-2.47,3.31,0,1.34,4.06,1.64,6.87C301,278.13,300.48,277.4,298.76,279.12Z" transform="translate(-174.2 -218.76)"/><path class="cls-8" d="M301.67,269c-.35,0-.81.11-1.35.21-.19,0-.9.17-1.92.44a20.33,20.33,0,0,0-2.19.67,13.09,13.09,0,0,0-2.25,1.06,8.21,8.21,0,0,0-1.52,1.1,5.81,5.81,0,0,0-1.1,1.31,5.26,5.26,0,0,0-.73,2.29,4,4,0,0,0,.46,2.46,3.89,3.89,0,0,0,1.92,1.6,4.69,4.69,0,0,0,1,.27,7,7,0,0,0,2.1,0,6,6,0,0,0,2-.58,7,7,0,0,0,1.23-.83,11.18,11.18,0,0,0,1.52-1.42,10.45,10.45,0,0,0,.75-1Z" transform="translate(-174.2 -218.76)"/><path class="cls-9" d="M348.66,294q0-15.63.06-31.27c.07-.2.16-.47.28-.79a20.35,20.35,0,0,1,.91-2,14,14,0,0,1,2.27-3.28,11,11,0,0,1,2.34-2,10,10,0,0,1,2.22-1,9.73,9.73,0,0,1,2.81-.42,14.85,14.85,0,0,1,3.3.34c.94.17,1.71.37,2.23.52L368,237.38a7.57,7.57,0,0,0-.69-.34,8.39,8.39,0,0,0-2.06-.58,17.89,17.89,0,0,0-2.67-.25,14.57,14.57,0,0,0-3.06.17,12.55,12.55,0,0,0-3.39,1.14,15.63,15.63,0,0,0-3.62,2.45,19.75,19.75,0,0,0-2.78,3,24.51,24.51,0,0,0-2.67,4.3h-.37l-1.28-9.7H331.06V294q8.49.1,17.05,0Z" transform="translate(-174.2 -218.76)"/><path class="cls-10" d="M374,294v-1.08q-.37-27.77,0-55.31h14.34l1.26,6.72H390l.69-.67a39.75,39.75,0,0,1,3.55-3.09,22.07,22.07,0,0,1,3-2,19.6,19.6,0,0,1,4.11-1.67,19.29,19.29,0,0,1,6.56-.61,16.81,16.81,0,0,1,2.7.45,12.94,12.94,0,0,1,2.17.73,12.76,12.76,0,0,1,2.48,1.48,14.34,14.34,0,0,1,2.55,2.55A16.11,16.11,0,0,1,420,245.3a22.16,22.16,0,0,1,1.11,3.39,33.06,33.06,0,0,1,.8,4.13,40.79,40.79,0,0,1,.38,5v36.1H404.61V261.06c0-.22,0-.56,0-1a17.21,17.21,0,0,0-.46-3.69,5.24,5.24,0,0,0-1-2.29,4.42,4.42,0,0,0-2.19-1.33,5,5,0,0,0-1-.15,7.68,7.68,0,0,0-2.35.21,8.27,8.27,0,0,0-2.33,1,10.2,10.2,0,0,0-1.4,1.06,26.87,26.87,0,0,0-2.19,2.08v37Z" transform="translate(-174.2 -218.76)"/><path class="cls-11" d="M431.69,258.56a33.93,33.93,0,0,1,1.25-4.58,28,28,0,0,1,2.5-5.5,25.77,25.77,0,0,1,4.67-5.67,23.87,23.87,0,0,1,21-6.17,24.1,24.1,0,0,1,8.83,3.58,24.54,24.54,0,0,1,6.25,6.08,29.33,29.33,0,0,1,5.17,11.58,34.58,34.58,0,0,1,.75,6.42,36.26,36.26,0,0,1-.5,8.08,29.79,29.79,0,0,1-2.42,7.92,28,28,0,0,1-5.92,8.25,23.61,23.61,0,0,1-7.83,5.17,24.33,24.33,0,0,1-9.17,1.58,24.86,24.86,0,0,1-11-2.75,24.56,24.56,0,0,1-8.83-8.08A29.05,29.05,0,0,1,432,274.15a38.21,38.21,0,0,1-.92-10.25A39.65,39.65,0,0,1,431.69,258.56Z" transform="translate(-174.2 -218.76)"/><path class="cls-12" d="M450.19,257.06a9.31,9.31,0,0,1,1-2.17,5.43,5.43,0,0,1,4.13-3,6.35,6.35,0,0,1,1.75-.17,6,6,0,0,1,1.58.29,5.76,5.76,0,0,1,1.71.92,6.8,6.8,0,0,1,1.63,2,12.45,12.45,0,0,1,1.25,3.17,22.46,22.46,0,0,1,.67,4,37.28,37.28,0,0,1,.08,5.42c0,.85-.11,2-.29,3.42a20.19,20.19,0,0,1-.42,2.38,11.67,11.67,0,0,1-.92,2.58,7.3,7.3,0,0,1-1.46,2.13,5.38,5.38,0,0,1-1.83,1.25,6.17,6.17,0,0,1-1.29.33,7.29,7.29,0,0,1-1.67.13,6.28,6.28,0,0,1-1.21-.17,5.36,5.36,0,0,1-2.33-1.37,8.85,8.85,0,0,1-2.29-3.67,12.86,12.86,0,0,1-.67-2.71,40.88,40.88,0,0,1-.37-7.62A30.36,30.36,0,0,1,450.19,257.06Z" transform="translate(-174.2 -218.76)"/><path class="cls-13" d="M524.51,293.22c-.56.23-1.29.51-2.16.78a27.06,27.06,0,0,1-3.25.78,36.32,36.32,0,0,1-4.25.51,28.23,28.23,0,0,1-4.11,0,23,23,0,0,1-4.06-.64,15.7,15.7,0,0,1-4-1.56c-.69-.38-1.19-.72-1.35-.84a17.8,17.8,0,0,1-1.79-1.44,17,17,0,0,1-3.31-4.6,21.36,21.36,0,0,1-1.56-4.06,27.81,27.81,0,0,1-.88-4.62,38.93,38.93,0,0,1-.29-5V252.69h-6.75V238.26l1-.11,6.81-.61,2.1-14.67h14.51v14.68h11.71v15.12H511.24q0,8.84,0,17.68c0,.17,0,.42,0,.72,0,.7,0,1.25,0,1.95,0,.3,0,.72.13,1.28a10.76,10.76,0,0,0,.23,1.2,7.46,7.46,0,0,0,.59,1.64,5.81,5.81,0,0,0,.76,1.18,5.4,5.4,0,0,0,1.14,1,5.17,5.17,0,0,0,1.41.64,6.47,6.47,0,0,0,1.86.26,10.25,10.25,0,0,0,2.86-.4,15.45,15.45,0,0,0,1.68-.52l2.53,13.41Z" transform="translate(-174.2 -218.76)"/><path class="cls-14" d="M573.76,288.75c-.27.24-.63.56-1.09.9s-.77.54-1.29.87a29.24,29.24,0,0,1-2.6,1.45,36.35,36.35,0,0,1-5.14,2,29,29,0,0,1-7,1.32,28.05,28.05,0,0,1-6.84-.44,26.41,26.41,0,0,1-4.09-1.11,24.9,24.9,0,0,1-3.05-1.35,24.4,24.4,0,0,1-7.51-6.13,26.41,26.41,0,0,1-2.84-4.3,28.57,28.57,0,0,1-2.38-6.11,34.86,34.86,0,0,1-1.19-7.55,39.26,39.26,0,0,1,.27-7.81,32.39,32.39,0,0,1,1.74-7.06,30.26,30.26,0,0,1,3.46-6.69,26.89,26.89,0,0,1,5.09-5.47,24.29,24.29,0,0,1,5.57-3.37,22.74,22.74,0,0,1,7.23-1.69,23.18,23.18,0,0,1,6.88.58,20.44,20.44,0,0,1,3.92,1.35,19.22,19.22,0,0,1,2.77,1.61,20.45,20.45,0,0,1,3.86,3.55,21,21,0,0,1,1.48,2,22.07,22.07,0,0,1,1.49,2.66,29.23,29.23,0,0,1,1.62,4.09,32.47,32.47,0,0,1,1,4.55,43.47,43.47,0,0,1,.53,8.47,42.34,42.34,0,0,1-.6,5.64l-.09.45H545.74c0,.15.06.37.12.62a9.21,9.21,0,0,0,.35,1.13c.24.67.36,1,.56,1.46a11.17,11.17,0,0,0,1.1,2,9.86,9.86,0,0,0,1.53,1.71,9.69,9.69,0,0,0,3.06,1.79,11.81,11.81,0,0,0,2.44.62,16.21,16.21,0,0,0,3.52.18,17.75,17.75,0,0,0,4.61-.91,24.23,24.23,0,0,0,4.05-1.87c.42-.23.77-.44,1-.58Z" transform="translate(-174.2 -218.76)"/><path class="cls-12" d="M545.6,259.44a9.8,9.8,0,0,1,.16-1.31,10.57,10.57,0,0,1,1-2.81,8.4,8.4,0,0,1,1.5-2.21,7.55,7.55,0,0,1,3.34-2,8.28,8.28,0,0,1,2.24-.28,8.07,8.07,0,0,1,2.22.32,6.68,6.68,0,0,1,1.13.45,5.88,5.88,0,0,1,1.22.84,5.69,5.69,0,0,1,1.27,1.73,7.83,7.83,0,0,1,.59,1.59,11.18,11.18,0,0,1,.41,2.65c0,.43,0,.78,0,1H545.6Z" transform="translate(-174.2 -218.76)"/><path class="cls-15" d="M515.59,343.08l-.35.34a7.35,7.35,0,0,1-1,.75,14.27,14.27,0,0,1-3.58,1.66,14.17,14.17,0,0,1-2.51.53,15.05,15.05,0,0,1-2.65,0,15.44,15.44,0,0,1-1.72-.21,13.65,13.65,0,0,1-2.61-.72,12.67,12.67,0,0,1-3.08-1.73,12.26,12.26,0,0,1-2.9-3.18,13.37,13.37,0,0,1-.89-1.69,14.87,14.87,0,0,1-.78-2.34,17.07,17.07,0,0,1-.48-3.73,16.86,16.86,0,0,1,.22-3.15,14.81,14.81,0,0,1,.71-2.67,13.36,13.36,0,0,1,1.53-2.91A13.22,13.22,0,0,1,498,321.4a14.7,14.7,0,0,1,4.38-2.35,17.73,17.73,0,0,1,5.26-.8,11.61,11.61,0,0,1,3.57.58,10.42,10.42,0,0,1,2,.87,10,10,0,0,1,2.05,1.55l-4.19,5.68-.34-.25a6.38,6.38,0,0,0-1-.59,4.23,4.23,0,0,0-.94-.35,4.14,4.14,0,0,0-.42-.07,5.12,5.12,0,0,0-1.33,0,5.23,5.23,0,0,0-2.13.85,5.32,5.32,0,0,0-1.31,1.32,5.89,5.89,0,0,0-.85,1.91,9.34,9.34,0,0,0-.3,3.08,8.14,8.14,0,0,0,.72,3.1,5.47,5.47,0,0,0,1.22,1.78,4.82,4.82,0,0,0,1.32.89,4.75,4.75,0,0,0,1.58.38,5.12,5.12,0,0,0,1.89-.24,7.24,7.24,0,0,0,1.69-.78,10.74,10.74,0,0,0,1-.69Z" transform="translate(-174.2 -218.76)"/><path class="cls-16" d="M522.55,315.3a5.13,5.13,0,0,1-1.37-.68,4.38,4.38,0,0,1-1.87-4.35,4.54,4.54,0,0,1,1.08-2.32,4.68,4.68,0,0,1,1.41-1.06,5.36,5.36,0,0,1,1-.38,6,6,0,0,1,1-.18,6.54,6.54,0,0,1,1.28,0,5.87,5.87,0,0,1,1.23.24,4.9,4.9,0,0,1,1.35.63,4.34,4.34,0,0,1,1.89,2.9,4.53,4.53,0,0,1-.33,2.76,4.68,4.68,0,0,1-1.58,1.82,5,5,0,0,1-1.91.76,6.67,6.67,0,0,1-1.75.11A5.63,5.63,0,0,1,522.55,315.3Z" transform="translate(-174.2 -218.76)"/><rect class="cls-17" x="345.61" y="100.16" width="9.24" height="26.87"/><path class="cls-18" d="M576.26,345.65l-.26.14a3.26,3.26,0,0,1-.41.15c-.39.12-.74.19-.78.2-.25.05-.6.12-1.08.18a14.58,14.58,0,0,1-1.68.1c-.19,0-.47,0-.84,0a10.57,10.57,0,0,1-1.89-.25,7.55,7.55,0,0,1-1.38-.44,6.78,6.78,0,0,1-2.25-1.57,6.59,6.59,0,0,1-1-1.36,10.24,10.24,0,0,1-1.15-3.91c-.06-.47-.08-.86-.09-1.12q0-14.71,0-29.42h9.25v28.14c0,.06,0,.14,0,.24a4.17,4.17,0,0,0,.11.92,2.29,2.29,0,0,0,.18.54,1.54,1.54,0,0,0,.35.48,1.41,1.41,0,0,0,.36.24,1.45,1.45,0,0,0,.52.12h.29a5.11,5.11,0,0,0,.67-.09Z" transform="translate(-174.2 -218.76)"/><path class="cls-19" d="M438.89,342.65l3.88-5.19a15.85,15.85,0,0,0,2.7,1.87,8.28,8.28,0,0,0,3,.93,5.44,5.44,0,0,0,2-.19,1.83,1.83,0,0,0,.94-.52,1.79,1.79,0,0,0,.39-.81,1.91,1.91,0,0,0,0-1c0-.16-.2-.55-1-1.1a7.13,7.13,0,0,0-1.56-.81l-2.21-.94c-1-.42-1.56-.67-2.31-1.07a12.78,12.78,0,0,1-1.59-.94,8.3,8.3,0,0,1-2.24-2.6,8.89,8.89,0,0,1-.58-7.21,9,9,0,0,1,2.76-3.8,9.52,9.52,0,0,1,4.16-1.88,11.17,11.17,0,0,1,3.05-.23A11.84,11.84,0,0,1,455,318.5a12.1,12.1,0,0,1,3.16,2.42l-3.46,4.77c-.2-.16-.46-.36-.79-.58a10.93,10.93,0,0,0-1.06-.64,7.73,7.73,0,0,0-1.88-.69,7.38,7.38,0,0,0-2.22-.1,3.28,3.28,0,0,0-.65.15,2,2,0,0,0-.8.43,1.75,1.75,0,0,0-.45.7,1.71,1.71,0,0,0,0,1.15,1.6,1.6,0,0,0,.36.54,12.43,12.43,0,0,0,3.39,1.75c1,.47,1.66.74,2.06.9l1,.41.67.31c.15.07.48.24.84.46a8.29,8.29,0,0,1,1.18.88,7.57,7.57,0,0,1,1.39,1.66,7.84,7.84,0,0,1,.76,1.75,9.6,9.6,0,0,1,.29,4.24,9.22,9.22,0,0,1-1.56,3.85,9.39,9.39,0,0,1-2.95,2.58,10.14,10.14,0,0,1-3.51,1.17,12.49,12.49,0,0,1-4,0,14,14,0,0,1-7.11-3.24,3.88,3.88,0,0,1-.74-.72Z" transform="translate(-174.2 -218.76)"/><path class="cls-20" d="M463.82,328.87a16.61,16.61,0,0,1,.61-2.24,13.72,13.72,0,0,1,1.22-2.69,12.61,12.61,0,0,1,2.28-2.77,11.68,11.68,0,0,1,10.28-3,11.8,11.8,0,0,1,4.32,1.75,12,12,0,0,1,3.06,3,14.36,14.36,0,0,1,2.53,5.67,16.93,16.93,0,0,1,.37,3.14,17.75,17.75,0,0,1-.24,4,14.58,14.58,0,0,1-1.18,3.87,13.69,13.69,0,0,1-2.9,4,11.56,11.56,0,0,1-3.83,2.53,11.91,11.91,0,0,1-4.49.77,12.17,12.17,0,0,1-5.38-1.35,12,12,0,0,1-4.32-4,14.22,14.22,0,0,1-2.16-5.06,18.7,18.7,0,0,1-.45-5A19.41,19.41,0,0,1,463.82,328.87Z" transform="translate(-174.2 -218.76)"/><path class="cls-12" d="M472.87,328.13a4.56,4.56,0,0,1,.47-1.06,2.66,2.66,0,0,1,2-1.45,3.11,3.11,0,0,1,.86-.08,2.92,2.92,0,0,1,.78.14,2.82,2.82,0,0,1,.84.45,3.33,3.33,0,0,1,.8,1,6.1,6.1,0,0,1,.61,1.55,11,11,0,0,1,.33,2,18.25,18.25,0,0,1,0,2.65c0,.41-.05,1-.14,1.67a9.88,9.88,0,0,1-.2,1.16,5.71,5.71,0,0,1-.45,1.26,3.57,3.57,0,0,1-.71,1,2.63,2.63,0,0,1-.9.61,3,3,0,0,1-.63.16,3.57,3.57,0,0,1-.82.06,3.08,3.08,0,0,1-.59-.08,2.62,2.62,0,0,1-1.14-.67,4.33,4.33,0,0,1-1.12-1.79,6.3,6.3,0,0,1-.33-1.33,20,20,0,0,1-.18-3.73A14.86,14.86,0,0,1,472.87,328.13Z" transform="translate(-174.2 -218.76)"/><path class="cls-21" d="M535.56,321.73c.47-.32,1-.68,1.71-1.05a21.61,21.61,0,0,1,2-1,18.51,18.51,0,0,1,3.73-1.22,17.44,17.44,0,0,1,3-.34,13.51,13.51,0,0,1,1.87.05,10.42,10.42,0,0,1,2.52.52,8.25,8.25,0,0,1,4,2.89,9.06,9.06,0,0,1,1,1.61,10.93,10.93,0,0,1,.57,1.47,15,15,0,0,1,.51,2.13,20.84,20.84,0,0,1,.29,2.78c0,.5,0,.92,0,1.23V346h-6.89l-.61-2.6H549l-.4.39a11.63,11.63,0,0,1-2.52,1.87,8.25,8.25,0,0,1-2.63.92,7.73,7.73,0,0,1-2.92-.07,7.17,7.17,0,0,1-2.33-1,7.06,7.06,0,0,1-2.09-2.16,8.15,8.15,0,0,1-.94-2,9.85,9.85,0,0,1-.44-2.39,8.59,8.59,0,0,1,.43-3.66,8.1,8.1,0,0,1,2.23-3.28,9.34,9.34,0,0,1,1.5-1,14.68,14.68,0,0,1,2.6-1.17,24.82,24.82,0,0,1,4.23-1.05c1-.18,1.85-.29,2.46-.35,0-.09,0-.21,0-.36a3.3,3.3,0,0,0-.3-1,2.56,2.56,0,0,0-.86-.95,3,3,0,0,0-.89-.37,5.59,5.59,0,0,0-1.89-.12,8.14,8.14,0,0,0-2,.45,12.49,12.49,0,0,0-1.43.58,21.26,21.26,0,0,0-2.27,1.23q-1.45-3-2.94-6Z" transform="translate(-174.2 -218.76)"/><path class="cls-12" d="M548.23,333.94l-.65.1c-.09,0-.43.08-.92.21a9.8,9.8,0,0,0-1.05.32,6.31,6.31,0,0,0-1.08.51,4,4,0,0,0-.73.53,2.8,2.8,0,0,0-.53.63,2.54,2.54,0,0,0-.35,1.1,2,2,0,0,0,.22,1.19,1.87,1.87,0,0,0,.92.77,2.26,2.26,0,0,0,.5.13,3.4,3.4,0,0,0,1,0,2.89,2.89,0,0,0,1-.28,3.36,3.36,0,0,0,.59-.4,5.39,5.39,0,0,0,.73-.68,5,5,0,0,0,.36-.46Z" transform="translate(-174.2 -218.76)"/></svg>