<svg id="Layer_1" data-name="Layer 1" xmlns="http://www.w3.org/2000/svg" xmlns:xlink="http://www.w3.org/1999/xlink" viewBox="0 0 942 352.38"><defs><style>.cls-1,.cls-10,.cls-7,.cls-8,.cls-9{stroke-miterlimit:10;}.cls-1{fill:url(#linear-gradient);stroke:url(#linear-gradient-2);}.cls-2{fill:#fff46a;opacity:0.13;}.cls-3{opacity:0.8;fill:url(#linear-gradient-3);}.cls-4{opacity:0.7;fill:url(#linear-gradient-4);}.cls-5,.cls-6{opacity:0.9;}.cls-5{fill:url(#linear-gradient-5);}.cls-6{fill:url(#linear-gradient-6);}.cls-10,.cls-7,.cls-8,.cls-9{fill:#ffd000;stroke-width:3px;}.cls-7,.cls-9{stroke:#f5ff00;}.cls-7{opacity:0.22;}.cls-10,.cls-8{stroke:#fffb55;}.cls-8{opacity:0.14;}.cls-9{opacity:0.06;}.cls-10{opacity:0.2;}.cls-11{opacity:0.15;}.cls-12{fill:#fffdfd;opacity:0.86;}.cls-13{fill:none;}.cls-14{fill:#f05922;}.cls-15{fill:#fff;}</style><linearGradient id="linear-gradient" x1="243.22" y1="268.34" x2="707.49" y2="186.48" gradientTransform="matrix(0.01, 1, -1.34, 0.01, 772.44, -301.67)" gradientUnits="userSpaceOnUse"><stop offset="0" stop-color="#ff2300"/><stop offset="0.23" stop-color="#fa5300"/><stop offset="0.47" stop-color="#f67d00"/><stop offset="0.69" stop-color="#f39c00"/><stop offset="0.87" stop-color="#f1af00"/><stop offset="1" stop-color="#f0b600"/></linearGradient><linearGradient id="linear-gradient-2" x1="297.32" y1="227.47" x2="653.58" y2="227.47" xlink:href="#linear-gradient"/><linearGradient id="linear-gradient-3" x1="127.76" y1="270.68" x2="550.09" y2="-151.64" gradientTransform="matrix(0.01, 1, -1.33, 0.01, 773.7, -301.67)" gradientUnits="userSpaceOnUse"><stop offset="0" stop-color="#ff5c17"/><stop offset="0.17" stop-color="#ff6315"/><stop offset="0.41" stop-color="#ff7611"/><stop offset="0.7" stop-color="#ff950a"/><stop offset="1" stop-color="#ffbd01"/></linearGradient><linearGradient id="linear-gradient-4" x1="562.82" y1="373.88" x2="494.37" y2="-277.32" gradientTransform="matrix(0.01, 1, -1.08, 0.01, 701.67, -301.28)" gradientUnits="userSpaceOnUse"><stop offset="0" stop-color="#f95900"/><stop offset="0.74" stop-color="#feb300"/></linearGradient><linearGradient id="linear-gradient-5" x1="566.53" y1="530.47" x2="403.29" y2="105.2" gradientTransform="matrix(0.01, 1, -1.3, 0.01, 752.22, -301.56)" gradientUnits="userSpaceOnUse"><stop offset="0" stop-color="#fa5800"/><stop offset="0.12" stop-color="#fa5e00"/><stop offset="0.28" stop-color="#fb6e01"/><stop offset="0.45" stop-color="#fc8903"/><stop offset="0.64" stop-color="#feaf05"/><stop offset="0.73" stop-color="#ffc206"/></linearGradient><linearGradient id="linear-gradient-6" x1="498.65" y1="547.31" x2="877.93" y2="328.33" gradientTransform="matrix(0.01, 1, -1.71, 0.01, 984.91, -302.83)" gradientUnits="userSpaceOnUse"><stop offset="0" stop-color="#fa6a13"/><stop offset="0.18" stop-color="#fc8d0e"/><stop offset="0.41" stop-color="#feb308"/><stop offset="0.54" stop-color="#ffc206"/></linearGradient></defs><title>profile_cover_web_final</title><path class="cls-1" d="M940.5,207.5V-.5h0L-.5.5C60.18,0,52.78.06-.5.5l1,350h939c.5-4.06,0-2.58,0,0l1-142s0,2,0,2v-2A3,3,0,0,1,940.5,207.5Z" transform="translate(1 1)"/><path class="cls-2" d="M940,0,491.34.75a3.66,3.66,0,0,1-1.14.17l-114.34.41a3.66,3.66,0,0,1-1.14.17l-80,.29q1.2,2,2.48,3.93c5.21,8,28.82,42.64,102.22,87.11C456.1,127.14,506.07,145.31,572,171.4,636.33,196.82,832.52,300.25,940,350Z" transform="translate(1 1)"/><path class="cls-3" d="M938.95,118.77c-10.92-3.07-26.17-7.7-45.14-14.08-22.35-7.51-33.52-11.26-47.05-16.38C810.19,74.47,788.87,66.4,772,54.54,752.67,41,748.45,29.14,741.18,8.63A79.28,79.28,0,0,1,738.63.09h-.08L689,.29a7.27,7.27,0,0,1-.91-.05L543.15.83a7.16,7.16,0,0,1-.9-.05L522.41.86c19.4,6.56,41.74,14.66,64.44,24.05,28.05,11.61,46.21,18.52,61,28.3,23,15.23,28.91,29.73,33.48,40.38,6.77,15.76,3.17,21.47,5.8,30.36,1.95,6.59,9.91,23.74,108.17,62.18C829,199.34,877,215.8,938.74,233.43Z" transform="translate(1 1)"/><path class="cls-4" d="M918,350c-.92-.45-97.06-55.54-98-56-62.26-30.2-124.75-56.08-248.82-104.89-11.2-4.41-32.36-12.73-60.71-23.71-38.94-15.09-76.17-29.21-150.64-57.45-62.55,58.1-78,72-64.23,87.72,3.79,4.32,5.1,3.42,92.23,40.17,57.12,24.09,63.34,27.34,69.74,31,15.27,8.85,45.14,26.53,56.47,51.35,6.64,14.56.2,16.85,5.7,32.42l302.86-1.13a4.64,4.64,0,0,1,.92.08,4.85,4.85,0,0,1,.59,0Z" transform="translate(1 1)"/><path class="cls-5" d="M575.42,350.52c-2-3.45-4.05-7.18-6.34-11.32-15.06-27.29-8.54-37.34-32.8-55.12-7.45-5.46-18.43-12.11-51.37-25.58-72.38-29.59-186.1-65.65-261.87-89.18-16.26-5.05-39.81-12.33-46-23.76-5.59-10.36,9-13.28-.22-23.94-6.19-7.17-19.12-13.2-37.88-21.95-7.48-3.49-14.14-6.28-18.91-8.21L.35,53.31l-.17,0,.78,84c14.32,5.92,36.44,14.19,68.63,26.22,63.64,23.78,121.37,43.65,162,57.36,40.94,13.81,59.55,19.67,108,36.4,70.89,24.49,85.69,30.81,99.95,40.11,31.09,20.29,37.23,40.13,38.08,43.12a28.68,28.68,0,0,1,1.18,10.42Z" transform="translate(1 1)"/><path class="cls-6" d="M329.41,350.34A208.73,208.73,0,0,1,300.6,339.2c-16.72-8.05-30.75-14.81-35.73-24.71S267.93,299,254,290.6c-12.32-7.38-32.72-11.52-42.71-13.63C115,256.69,37.61,225.39-.35,221.76L0,254.15c3.76,4.75,8,10.16,12.56,16.33,44.09,59.29,29.36,62.82,64.67,78.91,1.47.67,3,1.33,4.52,2l57-.25c.35,0,.68,0,1,0Z" transform="translate(1 1)"/><line class="cls-7" x1="66.97" y1="7.49" x2="131.68" y2="7.81"/><line class="cls-7" x1="63.58" y1="14.56" x2="128.3" y2="14.88"/><line class="cls-7" x1="60.2" y1="21.64" x2="124.91" y2="21.96"/><line class="cls-7" x1="56.81" y1="28.72" x2="121.52" y2="29.04"/><line class="cls-7" x1="53.42" y1="35.8" x2="118.13" y2="36.12"/><line class="cls-7" x1="50.03" y1="42.87" x2="114.74" y2="43.19"/><line class="cls-7" x1="46.98" y1="49.95" x2="111.69" y2="50.27"/><line class="cls-7" x1="43.59" y1="57.03" x2="108.3" y2="57.35"/><line class="cls-7" x1="40.2" y1="64.11" x2="104.91" y2="64.43"/><line class="cls-7" x1="36.81" y1="71.19" x2="101.53" y2="71.51"/><line class="cls-7" x1="33.43" y1="78.26" x2="98.14" y2="78.58"/><line class="cls-7" x1="30.04" y1="85.34" x2="94.75" y2="85.66"/><line class="cls-7" x1="27.32" y1="91.91" x2="92.03" y2="92.24"/><line class="cls-7" x1="23.93" y1="98.99" x2="88.64" y2="99.31"/><line class="cls-7" x1="20.54" y1="106.07" x2="85.26" y2="106.39"/><line class="cls-7" x1="17.16" y1="113.15" x2="81.87" y2="113.47"/><line class="cls-7" x1="13.77" y1="120.23" x2="78.48" y2="120.55"/><line class="cls-7" x1="10.38" y1="127.3" x2="75.09" y2="127.62"/><line class="cls-7" x1="7.33" y1="134.38" x2="72.04" y2="134.7"/><line class="cls-7" x1="3.94" y1="141.46" x2="68.65" y2="141.78"/><line class="cls-7" x1="2.37" y1="148.8" x2="64.6" y2="149.11"/><line class="cls-7" x1="2.31" y1="155.39" x2="61.88" y2="155.94"/><line class="cls-7" x1="2.24" y1="162.48" x2="57.16" y2="163.01"/><line class="cls-7" x1="2.17" y1="169.58" x2="53.11" y2="170.08"/><line class="cls-7" x1="2.11" y1="175.91" x2="49.07" y2="176.14"/><line class="cls-7" x1="2.04" y1="183" x2="44.35" y2="183.21"/><line class="cls-7" x1="1.97" y1="190.1" x2="39.97" y2="190.29"/><line class="cls-7" x1="1.9" y1="197.19" x2="35.59" y2="197.36"/><line class="cls-7" x1="1.83" y1="204.29" x2="30.21" y2="204.43"/><line class="cls-7" x1="1.77" y1="211.38" x2="24.5" y2="211.49"/><line class="cls-7" x1="1.7" y1="218.47" x2="19.45" y2="218.56"/><line class="cls-7" x1="1.63" y1="225.57" x2="14.07" y2="225.63"/><line class="cls-7" x1="1.56" y1="232.66" x2="10.02" y2="232.7"/><line class="cls-7" x1="1.49" y1="239.76" x2="4.97" y2="239.77"/><line class="cls-7" x1="1.42" y1="246.85" x2="2.91" y2="246.86"/><line class="cls-8" x1="314.96" y1="5.07" x2="362.46" y2="10.24"/><line class="cls-8" x1="312.17" y1="11.46" x2="359.66" y2="16.63"/><line class="cls-8" x1="309.37" y1="17.85" x2="356.86" y2="23.02"/><line class="cls-8" x1="306.57" y1="24.25" x2="354.07" y2="29.42"/><line class="cls-8" x1="303.78" y1="30.64" x2="351.27" y2="35.81"/><line class="cls-8" x1="300.98" y1="37.03" x2="348.47" y2="42.2"/><line class="cls-8" x1="298.43" y1="43.44" x2="345.92" y2="48.61"/><line class="cls-8" x1="295.63" y1="49.84" x2="343.12" y2="55.01"/><line class="cls-8" x1="292.83" y1="56.23" x2="340.33" y2="61.4"/><line class="cls-8" x1="290.04" y1="62.62" x2="337.53" y2="67.79"/><line class="cls-8" x1="287.24" y1="69.01" x2="334.73" y2="74.18"/><line class="cls-8" x1="284.44" y1="75.4" x2="331.94" y2="80.57"/><line class="cls-8" x1="282.16" y1="81.37" x2="329.65" y2="86.54"/><line class="cls-8" x1="279.36" y1="87.76" x2="326.86" y2="92.93"/><line class="cls-8" x1="276.57" y1="94.15" x2="324.06" y2="99.32"/><line class="cls-8" x1="273.77" y1="100.54" x2="321.26" y2="105.71"/><line class="cls-8" x1="270.97" y1="106.93" x2="318.47" y2="112.1"/><line class="cls-8" x1="268.18" y1="113.32" x2="315.67" y2="118.49"/><line class="cls-8" x1="265.62" y1="119.74" x2="313.12" y2="124.91"/><line class="cls-8" x1="262.83" y1="126.13" x2="310.32" y2="131.3"/><line class="cls-8" x1="260.03" y1="132.52" x2="307.52" y2="137.69"/><line class="cls-8" x1="257.23" y1="138.91" x2="304.73" y2="144.08"/><line class="cls-8" x1="254.44" y1="145.3" x2="301.93" y2="150.47"/><line class="cls-8" x1="251.64" y1="151.69" x2="299.13" y2="156.86"/><line class="cls-9" x1="770.17" y1="3.64" x2="834.88" y2="3.96"/><line class="cls-9" x1="766.78" y1="10.72" x2="831.49" y2="11.04"/><line class="cls-9" x1="763.39" y1="17.8" x2="828.11" y2="18.12"/><line class="cls-9" x1="760.01" y1="24.87" x2="824.72" y2="25.2"/><line class="cls-9" x1="756.62" y1="31.95" x2="821.33" y2="32.27"/><line class="cls-9" x1="753.23" y1="39.03" x2="817.94" y2="39.35"/><line class="cls-9" x1="750.17" y1="46.11" x2="814.89" y2="46.43"/><line class="cls-9" x1="746.79" y1="53.19" x2="811.5" y2="53.51"/><line class="cls-9" x1="743.4" y1="60.26" x2="808.11" y2="60.58"/><line class="cls-9" x1="740.01" y1="67.34" x2="804.72" y2="67.66"/><line class="cls-9" x1="736.62" y1="74.42" x2="801.34" y2="74.74"/><line class="cls-9" x1="733.24" y1="81.5" x2="797.95" y2="81.82"/><line class="cls-9" x1="730.52" y1="88.07" x2="795.23" y2="88.39"/><line class="cls-9" x1="727.13" y1="95.15" x2="791.84" y2="95.47"/><line class="cls-9" x1="723.74" y1="102.23" x2="788.46" y2="102.55"/><line class="cls-9" x1="720.36" y1="109.3" x2="785.07" y2="109.62"/><line class="cls-9" x1="716.97" y1="116.38" x2="781.68" y2="116.7"/><line class="cls-9" x1="713.58" y1="123.46" x2="778.29" y2="123.78"/><line class="cls-9" x1="710.52" y1="130.54" x2="775.24" y2="130.86"/><line class="cls-9" x1="707.14" y1="137.62" x2="771.85" y2="137.94"/><line class="cls-9" x1="705.57" y1="144.96" x2="767.8" y2="145.26"/><line class="cls-9" x1="705.51" y1="151.54" x2="765.07" y2="152.09"/><line class="cls-9" x1="705.44" y1="158.64" x2="760.36" y2="159.16"/><line class="cls-9" x1="705.37" y1="165.73" x2="756.31" y2="166.24"/><line class="cls-9" x1="705.31" y1="172.07" x2="752.27" y2="172.3"/><line class="cls-9" x1="705.24" y1="179.16" x2="747.55" y2="179.37"/><line class="cls-9" x1="705.17" y1="186.25" x2="743.17" y2="186.44"/><line class="cls-9" x1="705.1" y1="193.35" x2="738.79" y2="193.51"/><line class="cls-9" x1="705.03" y1="200.44" x2="733.41" y2="200.58"/><line class="cls-9" x1="704.96" y1="207.54" x2="727.7" y2="207.65"/><line class="cls-9" x1="704.89" y1="214.63" x2="722.65" y2="214.72"/><line class="cls-9" x1="704.83" y1="221.72" x2="717.27" y2="221.79"/><line class="cls-9" x1="704.76" y1="228.82" x2="713.22" y2="228.86"/><line class="cls-9" x1="704.69" y1="235.91" x2="708.17" y2="235.93"/><line class="cls-9" x1="704.62" y1="243.01" x2="706.11" y2="243.01"/><line class="cls-8" x1="247.9" y1="157.33" x2="295.39" y2="162.5"/><line class="cls-8" x1="245.1" y1="163.72" x2="292.6" y2="168.89"/><line class="cls-8" x1="242.31" y1="170.11" x2="289.8" y2="175.28"/><line class="cls-8" x1="239.51" y1="176.5" x2="287" y2="181.67"/><line class="cls-8" x1="236.71" y1="182.9" x2="284.21" y2="188.06"/><line class="cls-8" x1="233.92" y1="189.29" x2="281.41" y2="194.46"/><line class="cls-8" x1="231.36" y1="195.7" x2="278.86" y2="200.87"/><line class="cls-8" x1="228.57" y1="202.09" x2="276.06" y2="207.26"/><line class="cls-8" x1="225.77" y1="208.49" x2="273.26" y2="213.65"/><line class="cls-8" x1="222.97" y1="214.88" x2="270.47" y2="220.05"/><line class="cls-8" x1="220.18" y1="221.27" x2="267.67" y2="226.44"/><line class="cls-8" x1="217.38" y1="227.66" x2="264.87" y2="232.83"/><line class="cls-8" x1="215.1" y1="233.63" x2="262.59" y2="238.8"/><line class="cls-8" x1="212.3" y1="240.02" x2="259.79" y2="245.19"/><line class="cls-8" x1="209.5" y1="246.41" x2="257" y2="251.58"/><line class="cls-8" x1="206.71" y1="252.8" x2="254.2" y2="257.97"/><line class="cls-8" x1="203.91" y1="259.19" x2="251.4" y2="264.36"/><line class="cls-8" x1="201.11" y1="265.58" x2="248.61" y2="270.75"/><line class="cls-8" x1="198.56" y1="272" x2="246.05" y2="277.17"/><line class="cls-8" x1="195.76" y1="278.39" x2="243.26" y2="283.56"/><line class="cls-8" x1="192.97" y1="284.78" x2="240.46" y2="289.95"/><line class="cls-8" x1="190.17" y1="291.17" x2="237.66" y2="296.34"/><path class="cls-10" d="M365.87,299.13" transform="translate(1 1)"/><path class="cls-10" d="M318.37,294" transform="translate(1 1)"/><path class="cls-10" d="M363.07,305.52" transform="translate(1 1)"/><path class="cls-10" d="M315.58,300.35" transform="translate(1 1)"/><g class="cls-11"><path class="cls-12" d="M547.41,114.4a9.35,9.35,0,0,0-8.24-6.83L506.43,105h-.3a3.8,3.8,0,0,0-.53,0L485.28,68.5A7,7,0,0,0,479,64.6h0a7.06,7.06,0,0,0-6.52,4.31l-14.27,32.93a3.81,3.81,0,0,0-.28,2l-35.41,4a9.65,9.65,0,0,0-5.53,16.83L442,146.86a3.81,3.81,0,0,0,.76.52l-7.63,37.5a8.19,8.19,0,0,0,3.51,8.62,7.93,7.93,0,0,0,4.28,1.25,8.93,8.93,0,0,0,3.17-.6,23.24,23.24,0,0,0,3.42-1.59l30.4-18,29.49,17.14a9.46,9.46,0,0,0,14-10.23l-7.72-33.55a3.81,3.81,0,0,0-.27-.79c8.71-8,18.33-15.06,26.06-20.77l2.51-1.86A9.34,9.34,0,0,0,547.41,114.4Zm-75.91-5.59A3.83,3.83,0,0,0,472,108l.36,0Z" transform="translate(1 1)"/><path class="cls-13" d="M501,137.28a15.34,15.34,0,0,1,1.14,3.74A15.34,15.34,0,0,0,501,137.28Z" transform="translate(1 1)"/><path class="cls-13" d="M498.87,133.82a15.59,15.59,0,0,1,2.15,3.46A15.59,15.59,0,0,0,498.87,133.82Z" transform="translate(1 1)"/><path class="cls-13" d="M502.33,142.31q.06.65.07,1.31Q502.38,143,502.33,142.31Z" transform="translate(1 1)"/><path class="cls-13" d="M483,168.15c-1.27.81-2.52,1.58-3.69,2.28C480.44,169.73,481.68,169,483,168.15Z" transform="translate(1 1)"/><path class="cls-13" d="M488.16,127.11a21.46,21.46,0,0,1,6.85,3.16A21.46,21.46,0,0,0,488.16,127.11Z" transform="translate(1 1)"/><path class="cls-13" d="M499.52,154.34a20.45,20.45,0,0,1-2.44,3A20.45,20.45,0,0,0,499.52,154.34Z" transform="translate(1 1)"/><path class="cls-13" d="M502.35,145.05a20.88,20.88,0,0,1-.64,3.9A20.88,20.88,0,0,0,502.35,145.05Z" transform="translate(1 1)"/><path class="cls-13" d="M474.09,123.93a5,5,0,0,1,1.88,1.21A5,5,0,0,0,474.09,123.93Z" transform="translate(1 1)"/><path class="cls-13" d="M484.4,126.44a22.9,22.9,0,0,1,3.76.66A22.9,22.9,0,0,0,484.4,126.44Z" transform="translate(1 1)"/><path class="cls-13" d="M467.72,119.26a5.9,5.9,0,0,1,1.17.7A5.9,5.9,0,0,0,467.72,119.26Z" transform="translate(1 1)"/><path class="cls-13" d="M475,172.92c-.94.53-1.77,1-2.44,1.33C473.21,173.89,474,173.44,475,172.92Z" transform="translate(1 1)"/><path class="cls-13" d="M476.42,125.69l.15.25Z" transform="translate(1 1)"/><path class="cls-13" d="M476.57,125.94l0,.09Z" transform="translate(1 1)"/><polygon class="cls-13" points="482.58 105.62 482.58 105.62 475.24 112.47 482.58 105.62"/><path class="cls-13" d="M464.51,108.06a26.24,26.24,0,0,0-3.51,2.05A26.24,26.24,0,0,1,464.51,108.06Z" transform="translate(1 1)"/><path class="cls-13" d="M451.2,128.9s-.47-1.48-.49-1.48h0l-.06.3a7.75,7.75,0,0,1,.55,1.18Z" transform="translate(1 1)"/><path class="cls-13" d="M467.06,119a6.71,6.71,0,0,0-.7-.19h0A6.71,6.71,0,0,1,467.06,119Z" transform="translate(1 1)"/><path class="cls-13" d="M455.54,115.39a22.44,22.44,0,0,1,2.47-2.82A22.44,22.44,0,0,0,455.54,115.39Z" transform="translate(1 1)"/><path class="cls-13" d="M470.18,121.42A5,5,0,0,0,468.9,120,5,5,0,0,1,470.18,121.42Z" transform="translate(1 1)"/><path class="cls-13" d="M500.08,153.37c.07-.13.15-.27.21-.4a25.62,25.62,0,0,0,1.42-4,25.62,25.62,0,0,1-1.42,4C500.23,153.1,500.15,153.24,500.08,153.37Z" transform="translate(1 1)"/><path class="cls-13" d="M474.09,123.93a6.19,6.19,0,0,0-1.52-.34l17.9-18.92-17.9,18.92A6.19,6.19,0,0,1,474.09,123.93Z" transform="translate(1 1)"/><polygon class="cls-13" points="463.84 173.26 463.84 173.26 483.49 151.32 463.84 173.26"/><path class="cls-14" d="M538.84,111.37l-32.72-2.62,5.37,13.38c.1.32-.06.58-.24.58s-.18-.06-.25-.2L481.9,70.27a3.27,3.27,0,0,0-6,.14l-14.28,32.95,16.69,1.31a.33.33,0,0,1,.3.24l2.93-.3h0l-7.34,6.84-7.88,7.35a6.71,6.71,0,0,1,.7.19,6.41,6.41,0,0,1,.66.26,5.9,5.9,0,0,1,1.17.7,5,5,0,0,1,1.29,1.46,4.53,4.53,0,0,1,.28.57l0,.08L486.4,105l4.06-.33-17.9,18.92a6.19,6.19,0,0,1,1.52.34,5,5,0,0,1,1.88,1.21,4.24,4.24,0,0,1,.45.55l.15.25,0,.09,6.67.33,1.11.08a22.9,22.9,0,0,1,3.76.66,21.46,21.46,0,0,1,6.85,3.16,20.15,20.15,0,0,1,2.9,2.48q.51.53,1,1.07a15.59,15.59,0,0,1,2.15,3.46,15.34,15.34,0,0,1,1.14,3.74q.11.64.17,1.29t.07,1.31c0,.48,0,1,0,1.44a20.88,20.88,0,0,1-.64,3.9,25.62,25.62,0,0,1-1.42,4c-.06.13-.14.27-.21.4a10.86,10.86,0,0,1-.56,1,20.45,20.45,0,0,1-2.44,3,78.33,78.33,0,0,1-12.85,10l-1.28.82c-1.27.81-2.52,1.58-3.69,2.28-1.57.94-3,1.78-4.28,2.48-.94.53-1.77,1-2.44,1.33a14,14,0,0,1-1.92.92l2.14-2.45,1.23-1.4,1.41-1.61,1.54-1.75,3.25-3.71,7.93-9a4.23,4.23,0,0,1-2.32-1.41,7.94,7.94,0,0,1-1.35-2.29L465,173.42l-2.19-1.16h0l19.65-21.94a5,5,0,0,1-3.86-2.6c-.11-.2-.21-.38-.28-.54a4.3,4.3,0,0,1-.2-.52,31.08,31.08,0,0,1-8.28-.26q-1.09-.19-2.13-.46a23.69,23.69,0,0,1-8.15-3.8,21,21,0,0,1-2.8-2.45q-.63-.66-1.19-1.37a19,19,0,0,1-3.29-6.2l-.65-2.12-.08-1a20.13,20.13,0,0,1,3.95-13.64,22.44,22.44,0,0,1,2.47-2.82,24.13,24.13,0,0,1,3-2.46,26.24,26.24,0,0,1,3.51-2.05,28.85,28.85,0,0,1,4-1.58l-45.64,5.12a5.84,5.84,0,0,0-3.38,10.19L444.52,144l5.56-16.49c0-.13.1-.18.17-.18s.25.16.39.38l.06-.3h0s.5,1.48.49,1.48h0a7.75,7.75,0,0,0-.55-1.18l-11.79,57.95a4.37,4.37,0,0,0,1.84,4.63,4.09,4.09,0,0,0,2.23.65,5.13,5.13,0,0,0,1.82-.35,19.6,19.6,0,0,0,2.83-1.31l32.5-19.35,31.24,18.48a5.66,5.66,0,0,0,8.36-6.11L512,148.79l-11.84,8.81c11.77-14.52,29.61-27.27,41.58-36.15A5.61,5.61,0,0,0,538.84,111.37Z" transform="translate(1 1)"/><path class="cls-15" d="M458,112.57a22.44,22.44,0,0,0-2.47,2.82A20.13,20.13,0,0,0,451.59,129l.08,1,.65,2.12a19,19,0,0,0,3.29,6.2q.56.71,1.19,1.37a21,21,0,0,0,2.8,2.45,23.69,23.69,0,0,0,8.15,3.8q1,.27,2.13.46a31.08,31.08,0,0,0,8.28.26,4.3,4.3,0,0,0,.2.52c.07.16.16.34.28.54a5,5,0,0,0,3.86,2.6l-19.65,21.94h0l2.19,1.16,19.42-21.91a7.94,7.94,0,0,0,1.35,2.29,4.23,4.23,0,0,0,2.32,1.41l-7.93,9L476.93,168l-1.54,1.75L474,171.31l-1.23,1.4c-1.31,1.49-3.61,3.73-3.61,3.73s8.53-5.06,10.1-6c1.18-.71,2.42-1.47,3.69-2.28l1.28-.82a78.33,78.33,0,0,0,12.85-10,20.45,20.45,0,0,0,2.44-3,10.86,10.86,0,0,0,.56-1c.07-.13.15-.27.21-.4a25.62,25.62,0,0,0,1.42-4,20.88,20.88,0,0,0,.64-3.9c0-.48,0-1,0-1.44s0-.88-.07-1.31-.09-.86-.17-1.29a15.34,15.34,0,0,0-1.14-3.74,15.59,15.59,0,0,0-2.15-3.46q-.45-.55-1-1.07a20.15,20.15,0,0,0-2.9-2.48,21.46,21.46,0,0,0-6.85-3.16,22.9,22.9,0,0,0-3.76-.66l-1.11-.08-6.67-.33,0-.09-.15-.25a4.24,4.24,0,0,0-.45-.55,5,5,0,0,0-1.88-1.21,6.19,6.19,0,0,0-1.52-.34l17.9-18.92-4.06.33-15.91,17.08,0-.08a4.53,4.53,0,0,0-.28-.57A5,5,0,0,0,468.9,120a5.9,5.9,0,0,0-1.17-.7,6.41,6.41,0,0,0-.66-.26,6.71,6.71,0,0,0-.7-.19h0l7.88-7.35,7.34-6.84h0l-2.93.3-6.05.63a13.64,13.64,0,0,0-1.59.25c-.86.19-1.7.42-2.52.68a28.85,28.85,0,0,0-4,1.58,26.24,26.24,0,0,0-3.51,2.05A24.13,24.13,0,0,0,458,112.57Zm35,25.79a1,1,0,0,1,.52-.5,1,1,0,0,1,1.38,1,1,1,0,0,1-.17.47,1,1,0,0,1-.4.34,1,1,0,0,1-.31.09,1,1,0,0,1-.57-.11,1,1,0,0,1-.53-1A1,1,0,0,1,493,138.36Zm-1.72,1.52,2,1.48-3.37,10.8a5.07,5.07,0,0,1-1.71-.41,5.31,5.31,0,0,1-.92-.52l-.39-.3a6.4,6.4,0,0,1-.66-.64,7.1,7.1,0,0,1-.5-.63,6.23,6.23,0,0,1-.62-1.08,6,6,0,0,1-2.86-.85,5.53,5.53,0,0,1-2.16-2.45ZM461,134.5a1,1,0,0,1-.4.34,1,1,0,0,1-.31.09,1,1,0,0,1-.57-.11,1,1,0,0,1-.53-1,1,1,0,0,1,.08-.31,1,1,0,0,1,.52-.5A1,1,0,0,1,461,134.5Zm3.9-13.88a5.17,5.17,0,0,1,3,1.23l.35.32a6.8,6.8,0,0,1,.58.65l.23.31c.14.2.26.39.35.55a5.06,5.06,0,0,1,.27.53,6.55,6.55,0,0,1,1.31.2,5.74,5.74,0,0,1,1.08.4l.46.25a5.69,5.69,0,0,1,1.77,1.72,4.29,4.29,0,0,1,.39.73l-11.21,5.39-3.08-2.29,1.37-3.08Z" transform="translate(1 1)"/><path class="cls-15" d="M463.48,132.9l11.21-5.39a4.29,4.29,0,0,0-.39-.73,5.69,5.69,0,0,0-1.77-1.72l-.46-.25a5.74,5.74,0,0,0-1.08-.4,6.55,6.55,0,0,0-1.31-.2,5.06,5.06,0,0,0-.27-.53c-.09-.16-.21-.35-.35-.55l-.23-.31a6.8,6.8,0,0,0-.58-.65l-.35-.32a5.17,5.17,0,0,0-3-1.23l-3.08,6.91-1.37,3.08Z" transform="translate(1 1)"/><path class="cls-14" d="M463.48,132.9l11.21-5.39a4.29,4.29,0,0,0-.39-.73,5.69,5.69,0,0,0-1.77-1.72l-.46-.25a5.74,5.74,0,0,0-1.08-.4,6.55,6.55,0,0,0-1.31-.2,5.06,5.06,0,0,0-.27-.53c-.09-.16-.21-.35-.35-.55l-.23-.31a6.8,6.8,0,0,0-.58-.65l-.35-.32a5.17,5.17,0,0,0-3-1.23l-3.08,6.91-1.37,3.08Z" transform="translate(1 1)"/><path class="cls-15" d="M460.72,133.14a.85.85,0,0,0-1-.08,1,1,0,0,0-.52.5,1,1,0,0,0-.08.31,1,1,0,0,0,.53,1,1,1,0,0,0,.57.11,1,1,0,0,0,.31-.09,1,1,0,0,0,.4-.34,1,1,0,0,0,.17-.47A1,1,0,0,0,460.72,133.14Z" transform="translate(1 1)"/><path class="cls-14" d="M460.72,133.14a.85.85,0,0,0-1-.08,1,1,0,0,0-.52.5,1,1,0,0,0-.08.31,1,1,0,0,0,.53,1,1,1,0,0,0,.57.11,1,1,0,0,0,.31-.09,1,1,0,0,0,.4-.34,1,1,0,0,0,.17-.47A1,1,0,0,0,460.72,133.14Z" transform="translate(1 1)"/><path class="cls-15" d="M482.22,147.71a6,6,0,0,0,2.86.85,6.23,6.23,0,0,0,.62,1.08,7.1,7.1,0,0,0,.5.63,6.4,6.4,0,0,0,.66.64l.39.3a5.31,5.31,0,0,0,.92.52,5.07,5.07,0,0,0,1.71.41l3.37-10.8-2-1.48-11.21,5.39A5.53,5.53,0,0,0,482.22,147.71Z" transform="translate(1 1)"/><path class="cls-14" d="M482.22,147.71a6,6,0,0,0,2.86.85,6.23,6.23,0,0,0,.62,1.08,7.1,7.1,0,0,0,.5.63,6.4,6.4,0,0,0,.66.64l.39.3a5.31,5.31,0,0,0,.92.52,5.07,5.07,0,0,0,1.71.41l3.37-10.8-2-1.48-11.21,5.39A5.53,5.53,0,0,0,482.22,147.71Z" transform="translate(1 1)"/><path class="cls-15" d="M493.44,139.63a1,1,0,0,0,.57.11,1,1,0,0,0,.31-.09,1,1,0,0,0,.4-.34,1,1,0,0,0,.17-.47.93.93,0,0,0-1.38-1,1,1,0,0,0-.52.5,1,1,0,0,0-.08.31A1,1,0,0,0,493.44,139.63Z" transform="translate(1 1)"/><path class="cls-14" d="M493.44,139.63a1,1,0,0,0,.57.11,1,1,0,0,0,.31-.09,1,1,0,0,0,.4-.34,1,1,0,0,0,.17-.47.93.93,0,0,0-1.38-1,1,1,0,0,0-.52.5,1,1,0,0,0-.08.31A1,1,0,0,0,493.44,139.63Z" transform="translate(1 1)"/><path class="cls-15" d="M365.74,243l2.35-5.28a16,16,0,0,0,8.36,2.5c3,0,4.12-.83,4.12-2.06,0-4-14.4-1.09-14.4-10.5,0-4.52,3.69-8.22,11.22-8.22a19,19,0,0,1,9.19,2.21L384.37,227a15,15,0,0,0-7-2c-3,0-4.09,1-4.09,2.28,0,3.87,14.36,1,14.36,10.32,0,4.42-3.69,8.18-11.22,8.18C372.25,245.78,368.13,244.65,365.74,243Z" transform="translate(1 1)"/><path class="cls-15" d="M399.85,225.61h-7.78v-5.68h22.68v5.68H407v19.65h-7.16Z" transform="translate(1 1)"/><path class="cls-15" d="M438,240.35H427.25l-2,4.92H418l11.18-25.34h7.05l11.22,25.34h-7.45Zm-2.1-5.28L432.6,227l-3.26,8.11Z" transform="translate(1 1)"/><path class="cls-15" d="M464.15,238.54h-3.91v6.73h-7.16V219.93h11.58c6.91,0,11.25,3.58,11.25,9.38a8.41,8.41,0,0,1-5,8l5.46,8h-7.67Zm.07-13h-4V233h4c3,0,4.45-1.38,4.45-3.69S467.19,225.58,464.22,225.58Z" transform="translate(1 1)"/><path class="cls-15" d="M506.89,219.93v25.34H503l-14-17.16v17.16h-4.67V219.93h3.87l14,17.16V219.93Z" transform="translate(1 1)"/><path class="cls-15" d="M515.49,232.6c0-7.49,5.79-13,13.64-13s13.64,5.5,13.64,13-5.79,13-13.64,13S515.49,240.09,515.49,232.6Zm22.54,0a8.9,8.9,0,1,0-8.9,8.9A8.63,8.63,0,0,0,538,232.6Z" transform="translate(1 1)"/><path class="cls-15" d="M556.58,223.91h-8.39v-4h21.49v4h-8.39v21.36h-4.7Z" transform="translate(1 1)"/><path class="cls-15" d="M595.74,241.32v3.95h-19V219.93h18.49v3.95H581.45v6.59h12.23v3.87H581.45v7Z" transform="translate(1 1)"/><path class="cls-15" d="M457.48,271l1.1-2.44A8.23,8.23,0,0,0,463.2,270c1.92,0,2.7-.64,2.7-1.5,0-2.62-8.14-.82-8.14-6,0-2.38,1.92-4.36,5.9-4.36a9.38,9.38,0,0,1,4.86,1.24l-1,2.46a7.9,7.9,0,0,0-3.88-1.1c-1.92,0-2.66.72-2.66,1.6,0,2.58,8.14.8,8.14,5.94,0,2.34-1.94,4.34-5.94,4.34A10,10,0,0,1,457.48,271Z" transform="translate(1 1)"/><path class="cls-15" d="M482.3,265.38c0-4.16,3.24-7.24,7.66-7.24s7.66,3.06,7.66,7.24-3.26,7.24-7.66,7.24S482.3,269.54,482.3,265.38Zm12,0a4.38,4.38,0,1,0-4.38,4.48A4.27,4.27,0,0,0,494.34,265.38Z" transform="translate(1 1)"/><path class="cls-15" d="M511.52,265.38c0-4.22,3.24-7.24,7.6-7.24a7.22,7.22,0,0,1,5.76,2.48l-2.08,1.92a4.5,4.5,0,0,0-3.52-1.64,4.48,4.48,0,0,0,0,9,4.46,4.46,0,0,0,3.52-1.66l2.08,1.92a7.19,7.19,0,0,1-5.78,2.5C514.76,272.62,511.52,269.6,511.52,265.38Z" transform="translate(1 1)"/><path class="cls-15" d="M539.31,258.38h3.24v14h-3.24Z" transform="translate(1 1)"/><path class="cls-15" d="M567,269.38h-6.5l-1.24,3h-3.32l6.24-14h3.2l6.26,14h-3.4Zm-1-2.46-2.22-5.36-2.22,5.36Z" transform="translate(1 1)"/><path class="cls-15" d="M585.44,258.38h3.24v11.36h7v2.64H585.44Z" transform="translate(1 1)"/><rect class="cls-15" x="366.74" y="265.57" width="84.07" height="1.63"/></g><line class="cls-8" x1="186.77" y1="297.49" x2="234.26" y2="302.65"/><line class="cls-8" x1="183.97" y1="303.88" x2="231.47" y2="309.05"/><line class="cls-8" x1="181.18" y1="310.27" x2="228.67" y2="315.44"/></svg>