<svg xmlns="http://www.w3.org/2000/svg" width="311.541" height="258.879" viewBox="0 0 311.541 258.879">
  <g id="user-image-with-black-background" transform="translate(0 -26.331)">
    <g id="Group_1" data-name="Group 1">
      <path id="Path_1" data-name="Path 1" d="M155.771,26.331A155.767,155.767,0,0,0,35.314,280.863c3.4-27.256,30.627-50.308,68.8-61.225,13.946,12.994,31.96,20.878,51.656,20.878,19.233,0,36.894-7.487,50.7-19.936,38.5,11.871,65.141,36.27,66.017,64.63A155.732,155.732,0,0,0,155.771,26.331Zm0,195.738a55.645,55.645,0,0,1-27.634-7.464c-20.05-11.409-33.855-34.756-33.855-61.711,0-38.143,27.583-69.176,61.489-69.176s61.489,31.033,61.489,69.176c0,27.369-14.237,51-34.786,62.215A55.518,55.518,0,0,1,155.771,222.069Z" fill="#f05922"/>
    </g>
  </g>
</svg>
